<svg width="309" height="308" xmlns="http://www.w3.org/2000/svg" xmlns:xlink="http://www.w3.org/1999/xlink" xml:space="preserve" overflow="hidden"><defs><clipPath id="clip0"><rect x="0" y="0" width="309" height="308"/></clipPath><clipPath id="clip1"><rect x="0" y="0" width="309" height="307"/></clipPath><clipPath id="clip2"><rect x="0" y="0" width="310" height="307"/></clipPath><radialGradient cx="345" cy="314" r="61.2209" gradientUnits="userSpaceOnUse" spreadMethod="pad" id="fill3" gradientTransform="scale(3.44111 3.44111)"><stop offset="0" stop-color="#FFFFFF" stop-opacity="1"/><stop offset="0.0693107" stop-color="#FFEBB0" stop-opacity="1"/><stop offset="0.2207" stop-color="#FFBF02" stop-opacity="1"/><stop offset="0.4968" stop-color="#FF136E" stop-opacity="1"/><stop offset="0.7452" stop-color="#812BED" stop-opacity="1"/><stop offset="1" stop-color="#564EE7" stop-opacity="1"/></radialGradient><radialGradient cx="345" cy="314" r="61.2209" gradientUnits="userSpaceOnUse" spreadMethod="pad" id="fill4" gradientTransform="scale(3.44111 3.44111)"><stop offset="0" stop-color="#FFFFFF" stop-opacity="1"/><stop offset="0.0693107" stop-color="#FFEBB0" stop-opacity="1"/><stop offset="0.2207" stop-color="#FFBF02" stop-opacity="1"/><stop offset="0.4968" stop-color="#FF136E" stop-opacity="1"/><stop offset="0.7452" stop-color="#812BED" stop-opacity="1"/><stop offset="1" stop-color="#564EE7" stop-opacity="1"/></radialGradient><radialGradient cx="345" cy="314" r="61.2209" gradientUnits="userSpaceOnUse" spreadMethod="pad" id="fill5" gradientTransform="scale(3.44111 3.44111)"><stop offset="0" stop-color="#FFFFFF" stop-opacity="1"/><stop offset="0.0693107" stop-color="#FFEBB0" stop-opacity="1"/><stop offset="0.2207" stop-color="#FFBF02" stop-opacity="1"/><stop offset="0.4968" stop-color="#FF136E" stop-opacity="1"/><stop offset="0.7452" stop-color="#812BED" stop-opacity="1"/><stop offset="1" stop-color="#564EE7" stop-opacity="1"/></radialGradient><radialGradient cx="345" cy="314" r="61.2209" gradientUnits="userSpaceOnUse" spreadMethod="pad" id="fill6" gradientTransform="scale(3.44111 3.44111)"><stop offset="0" stop-color="#FFFFFF" stop-opacity="1"/><stop offset="0.0693107" stop-color="#FFEBB0" stop-opacity="1"/><stop offset="0.2207" stop-color="#FFBF02" stop-opacity="1"/><stop offset="0.4968" stop-color="#FF136E" stop-opacity="1"/><stop offset="0.7452" stop-color="#812BED" stop-opacity="1"/><stop offset="1" stop-color="#564EE7" stop-opacity="1"/></radialGradient><radialGradient cx="647" cy="790.1" r="112.446" gradientUnits="userSpaceOnUse" spreadMethod="pad" id="fill7" gradientTransform="matrix(3.44111 0 0 -3.44111 0 3798.98)"><stop offset="0" stop-color="#FFFFFF" stop-opacity="1"/><stop offset="0.0693107" stop-color="#FFEBB0" stop-opacity="1"/><stop offset="0.2207" stop-color="#FFBF02" stop-opacity="1"/><stop offset="0.4968" stop-color="#FF136E" stop-opacity="1"/><stop offset="0.7452" stop-color="#812BED" stop-opacity="1"/><stop offset="1" stop-color="#564EE7" stop-opacity="1"/></radialGradient><radialGradient cx="1110.12" cy="-349.227" r="100.457" fx="1093.2" fy="-345.139" gradientUnits="userSpaceOnUse" spreadMethod="pad" id="fill8" gradientTransform="matrix(2.78558 -2.02062 1.55848 2.14863 419.044 4051.11)"><stop offset="0" stop-color="#FFFFFF" stop-opacity="1"/><stop offset="0.0693107" stop-color="#FFEBB0" stop-opacity="1"/><stop offset="0.2207" stop-color="#FFBF02" stop-opacity="1"/><stop offset="0.4968" stop-color="#FF136E" stop-opacity="1"/><stop offset="0.7452" stop-color="#812BED" stop-opacity="1"/><stop offset="1" stop-color="#564EE7" stop-opacity="1"/></radialGradient><radialGradient cx="345" cy="314" r="61.2209" gradientUnits="userSpaceOnUse" spreadMethod="pad" id="fill9" gradientTransform="scale(3.44111 3.44111)"><stop offset="0" stop-color="#FFFFFF" stop-opacity="1"/><stop offset="0.0693107" stop-color="#FFEBB0" stop-opacity="1"/><stop offset="0.2207" stop-color="#FFBF02" stop-opacity="1"/><stop offset="0.4968" stop-color="#FF136E" stop-opacity="1"/><stop offset="0.7452" stop-color="#812BED" stop-opacity="1"/><stop offset="1" stop-color="#564EE7" stop-opacity="1"/></radialGradient></defs><g clip-path="url(#clip0)"><g clip-path="url(#clip1)"><g clip-path="url(#clip2)"><path d="M1723.31 1519.59 1652.07 1519.59C1624.89 1519.59 1602.52 1497.22 1602.52 1470.04L1602.52 1398.46C1602.52 1371.28 1624.89 1348.91 1652.07 1348.91L1723.31 1348.91C1750.49 1348.91 1772.85 1371.28 1772.85 1398.46L1772.85 1470.04C1772.85 1497.57 1750.49 1519.59 1723.31 1519.59ZM1651.73 1364.4C1633.15 1364.4 1617.67 1379.54 1617.67 1398.46L1617.67 1470.04C1617.67 1488.63 1632.81 1504.11 1651.73 1504.11L1722.97 1504.11C1741.55 1504.11 1757.03 1488.97 1757.03 1470.04L1757.03 1398.46C1757.03 1379.89 1741.89 1364.4 1722.97 1364.4L1651.73 1364.4Z" fill="#686868" fill-rule="nonzero" fill-opacity="1" transform="matrix(1.00366 0 0 1 -2167.55 -774.986)"/><path d="M1687.52 1477.96C1663.43 1477.96 1643.82 1458.34 1643.82 1434.25 1643.82 1410.17 1663.43 1390.56 1687.52 1390.56 1711.61 1390.56 1731.22 1410.17 1731.22 1434.25 1731.22 1458.34 1711.61 1477.96 1687.52 1477.96ZM1687.52 1406.04C1672.03 1406.04 1659.3 1418.77 1659.3 1434.25 1659.3 1449.74 1672.03 1462.47 1687.52 1462.47 1703.01 1462.47 1715.74 1449.74 1715.74 1434.25 1715.74 1418.77 1703.01 1406.04 1687.52 1406.04Z" fill="#686868" fill-rule="nonzero" fill-opacity="1" transform="matrix(1.00366 0 0 1 -2167.55 -774.986)"/><path d="M1743.61 1388.83C1743.61 1394.53 1738.99 1399.16 1733.29 1399.16 1727.58 1399.16 1722.97 1394.53 1722.97 1388.83 1722.97 1383.13 1727.58 1378.51 1733.29 1378.51 1738.99 1378.51 1743.61 1383.13 1743.61 1388.83Z" fill="#686868" fill-rule="nonzero" fill-opacity="1" transform="matrix(1.00366 0 0 1 -2167.55 -774.986)"/><path d="M1256 1004.81C1231.92 1004.81 1212.31 985.189 1212.31 961.102 1212.31 937.014 1231.92 917.399 1256 917.399 1280.09 917.399 1299.7 937.014 1299.7 961.102 1299.7 985.189 1280.09 1004.81 1256 1004.81ZM1256 932.884C1240.52 932.884 1227.79 945.617 1227.79 961.102 1227.79 976.587 1240.52 989.319 1256 989.319 1271.49 989.319 1284.22 976.587 1284.22 961.102 1284.22 945.617 1271.49 932.884 1256 932.884Z" fill="url(#fill3)" fill-rule="nonzero" transform="matrix(1.00366 0 0 1 -2167.55 -774.986)"/><path d="M1256 1004.81C1231.92 1004.81 1212.31 985.189 1212.31 961.102 1212.31 937.014 1231.92 917.399 1256 917.399 1280.09 917.399 1299.7 937.014 1299.7 961.102 1299.7 985.189 1280.09 1004.81 1256 1004.81ZM1256 932.884C1240.52 932.884 1227.79 945.617 1227.79 961.102 1227.79 976.587 1240.52 989.319 1256 989.319 1271.49 989.319 1284.22 976.587 1284.22 961.102 1284.22 945.617 1271.49 932.884 1256 932.884Z" fill="url(#fill4)" fill-rule="nonzero" transform="matrix(1.00366 0 0 1 -2167.55 -774.986)"/><path d="M1312.09 915.68C1312.09 921.38 1307.47 926.002 1301.78 926.002 1296.07 926.002 1291.45 921.38 1291.45 915.68 1291.45 909.978 1296.07 905.356 1301.78 905.356 1307.47 905.356 1312.09 909.978 1312.09 915.68Z" fill="url(#fill5)" fill-rule="nonzero" transform="matrix(1.00366 0 0 1 -2167.55 -774.986)"/><path d="M1312.09 915.68C1312.09 921.38 1307.47 926.002 1301.78 926.002 1296.07 926.002 1291.45 921.38 1291.45 915.68 1291.45 909.978 1296.07 905.356 1301.78 905.356 1307.47 905.356 1312.09 909.978 1312.09 915.68Z" fill="url(#fill6)" fill-rule="nonzero" transform="matrix(1.00366 0 0 1 -2167.55 -774.986)"/><path d="M4304.48 1047.13 4177.16 1047.13C4147.91 1047.13 4124.51 1023.38 4124.51 994.48L4124.51 866.815C4124.51 837.566 4148.26 814.167 4177.16 814.167L4304.48 814.167C4333.74 814.167 4357.14 837.91 4357.14 866.815L4357.14 994.48C4357.14 1023.73 4333.39 1047.13 4304.48 1047.13Z" fill="#686868" fill-rule="nonzero" fill-opacity="1" transform="matrix(1.00366 0 0 1 -2167.55 -774.986)"/><path d="M4276.61 1015.81 4205.38 1015.81C4178.2 1015.81 4155.83 993.448 4155.83 966.263L4155.83 894.688C4155.83 867.504 4178.2 845.137 4205.38 845.137L4276.61 845.137C4303.8 845.137 4326.16 867.504 4326.16 894.688L4326.16 966.263C4326.16 993.792 4303.8 1015.81 4276.61 1015.81ZM4205.04 860.966C4186.45 860.966 4170.97 876.107 4170.97 895.032L4170.97 966.263C4170.97 984.845 4186.1 1000.33 4205.04 1000.33L4276.27 1000.33C4294.84 1000.33 4310.34 985.189 4310.34 966.263L4310.34 894.688C4310.34 876.107 4295.19 860.622 4276.27 860.622L4205.04 860.966Z" fill="#FFFFFF" fill-rule="nonzero" fill-opacity="1" transform="matrix(1.00366 0 0 1 -2167.55 -774.986)"/><path d="M4240.82 974.178C4216.73 974.178 4197.12 954.563 4197.12 930.476 4197.12 906.388 4216.73 886.773 4240.82 886.773 4264.92 886.773 4284.53 906.388 4284.53 930.476 4284.53 954.563 4264.92 974.178 4240.82 974.178ZM4240.82 902.259C4225.34 902.259 4212.6 914.991 4212.6 930.476 4212.6 945.961 4225.34 958.693 4240.82 958.693 4256.31 958.693 4269.04 945.961 4269.04 930.476 4269.04 914.991 4256.31 902.259 4240.82 902.259Z" fill="#FFFFFF" fill-rule="nonzero" fill-opacity="1" transform="matrix(1.00366 0 0 1 -2167.55 -774.986)"/><path d="M4296.91 885.398C4296.91 891.099 4292.29 895.72 4286.59 895.72 4280.89 895.72 4276.27 891.099 4276.27 885.398 4276.27 879.696 4280.89 875.074 4286.59 875.074 4292.29 875.074 4296.91 879.696 4296.91 885.398Z" fill="#FFFFFF" fill-rule="nonzero" fill-opacity="1" transform="matrix(1.00366 0 0 1 -2167.55 -774.986)"/><path d="M3879.17 1015.48 3807.93 1015.48C3780.75 1015.48 3758.38 993.104 3758.38 965.919L3758.38 894C3758.38 866.815 3780.75 844.448 3807.93 844.448L3879.17 844.448C3906.34 844.448 3928.72 866.815 3928.72 894L3928.72 965.575C3928.72 993.104 3906.34 1015.48 3879.17 1015.48ZM3807.58 860.277C3789 860.277 3773.52 875.418 3773.52 894.344L3773.52 965.919C3773.52 984.502 3788.66 999.983 3807.58 999.983L3878.82 999.983C3897.4 999.983 3912.88 984.845 3912.88 965.919L3912.88 894C3912.88 875.418 3897.74 859.933 3878.82 859.933L3807.58 860.277Z" fill="#686868" fill-rule="nonzero" fill-opacity="1" transform="matrix(1.00366 0 0 1 -2167.55 -774.986)"/><path d="M3843.38 973.49C3819.29 973.49 3799.67 953.876 3799.67 929.788 3799.67 905.7 3819.29 886.085 3843.38 886.085 3867.46 886.085 3887.07 905.7 3887.07 929.788 3887.07 953.876 3867.46 973.49 3843.38 973.49ZM3843.38 901.57C3827.89 901.57 3815.16 914.303 3815.16 929.788 3815.16 945.273 3827.89 958.005 3843.38 958.005 3858.86 958.005 3871.59 945.273 3871.59 929.788 3871.59 914.303 3858.86 901.57 3843.38 901.57Z" fill="#686868" fill-rule="nonzero" fill-opacity="1" transform="matrix(1.00366 0 0 1 -2167.55 -774.986)"/><path d="M3899.47 884.71C3899.47 890.41 3894.84 895.032 3889.14 895.032 3883.44 895.032 3878.82 890.41 3878.82 884.71 3878.82 879.008 3883.44 874.386 3889.14 874.386 3894.84 874.386 3899.47 879.008 3899.47 884.71Z" fill="#686868" fill-rule="nonzero" fill-opacity="1" transform="matrix(1.00366 0 0 1 -2167.55 -774.986)"/><path d="M2466.59 1420.49C2466.59 1505.14 2398.11 1573.62 2313.45 1573.62 2228.81 1573.62 2160.33 1505.14 2160.33 1420.49 2160.33 1335.84 2228.81 1267.36 2313.45 1267.36 2398.11 1267.36 2466.59 1335.84 2466.59 1420.49ZM2395.35 1455.94 2395.35 1384.35C2395.35 1357.18 2372.99 1334.81 2345.8 1334.81L2274.57 1334.81C2247.38 1334.81 2225.02 1357.18 2225.02 1384.35L2225.02 1456.28C2225.02 1483.46 2247.38 1505.83 2274.57 1505.83L2345.8 1505.83C2372.99 1505.83 2395.35 1483.46 2395.35 1455.94ZM2274.23 1350.29 2345.46 1350.29C2364.39 1350.29 2379.52 1365.77 2379.52 1384.35L2379.52 1456.28C2379.52 1475.2 2364.04 1490.34 2345.46 1490.34L2274.23 1490.34C2255.3 1490.34 2240.17 1474.86 2240.17 1456.28L2240.17 1384.7C2240.17 1365.77 2255.65 1350.64 2274.23 1350.64L2274.23 1350.29ZM2353.72 1420.15C2353.72 1396.06 2334.1 1376.44 2310.01 1376.44 2285.93 1376.44 2266.32 1396.06 2266.32 1420.15 2266.32 1444.23 2285.93 1463.84 2310.01 1463.84 2334.1 1463.84 2353.72 1444.23 2353.72 1420.15ZM2338.24 1420.15C2338.24 1435.63 2325.51 1448.36 2310.01 1448.36 2294.53 1448.36 2281.8 1435.63 2281.8 1420.15 2281.8 1404.66 2294.53 1391.93 2310.01 1391.93 2325.51 1391.93 2338.24 1404.66 2338.24 1420.15ZM2345.46 1375.06C2345.46 1380.92 2349.93 1385.39 2355.78 1385.39 2361.64 1385.39 2366.1 1380.92 2366.1 1375.06 2366.1 1369.22 2361.64 1364.74 2355.78 1364.74 2349.93 1364.74 2345.46 1369.22 2345.46 1375.06Z" fill="#686868" fill-rule="nonzero" fill-opacity="1" transform="matrix(1.00366 0 0 1 -2167.55 -774.986)"/><path d="M1723.31 2025.09C1720.9 2025.09 1720.9 2025.09 1718.49 2025.09 1716.08 2025.09 1716.08 2025.44 1713.67 2025.44 1711.26 2025.44 1711.26 2025.09 1708.86 2025.09 1706.45 2025.09 1706.45 2024.06 1704.03 2024.06 1701.63 2024.06 1701.63 2025.44 1699.22 2025.44 1696.82 2025.44 1696.82 2024.06 1694.4 2024.06 1691.99 2024.06 1691.99 2024.4 1689.59 2024.4 1687.18 2024.4 1687.18 2025.09 1684.76 2025.09 1682.36 2025.09 1682.36 2024.75 1679.95 2024.75 1677.54 2024.75 1677.54 2024.75 1675.13 2024.75 1672.72 2024.75 1672.72 2024.4 1670.32 2024.4 1667.9 2024.4 1667.9 2025.09 1665.5 2025.09 1663.09 2025.09 1663.09 2025.44 1660.68 2025.44 1658.27 2025.44 1658.27 2025.44 1655.86 2025.44 1653.46 2025.44 1653.46 2024.4 1651.04 2024.4 1649.32 2024.4 1647.61 2025.44 1646.23 2025.44 1644.5 2025.44 1643.13 2024.06 1641.4 2023.71 1639.69 2023.37 1638.31 2023.37 1636.59 2022.69 1634.87 2022.34 1633.84 2020.96 1632.46 2020.27 1631.09 2019.59 1628.67 2020.27 1627.3 2019.59 1625.92 2018.9 1624.89 2017.18 1623.52 2016.15 1622.14 2015.11 1621.11 2014.08 1620.08 2013.05 1618.69 2012.02 1616.63 2012.02 1615.6 2010.64 1614.57 2009.61 1613.88 2007.54 1612.85 2006.52 1611.81 2005.14 1611.13 2003.75 1610.44 2002.38 1609.41 2001 1607.69 2000.31 1607 1998.94 1606.31 1997.56 1606.31 1995.5 1605.62 1994.12 1604.94 1992.75 1604.94 1991.02 1604.59 1989.31 1604.25 1987.93 1603.56 1986.21 1603.21 1984.83 1602.87 1983.12 1601.5 1981.73 1601.15 1980.35 1601.15 1978.64 1602.18 1976.92 1602.18 1975.54 1602.18 1973.14 1601.15 1973.14 1601.15 1970.72 1601.15 1968.31 1601.5 1968.31 1601.5 1965.91 1601.5 1963.5 1601.83 1963.5 1601.83 1961.09 1601.83 1958.68 1601.15 1958.68 1601.15 1956.27 1601.15 1953.87 1601.15 1953.87 1601.15 1951.45 1601.15 1949.04 1601.83 1949.04 1601.83 1946.64 1601.83 1944.22 1600.46 1944.22 1600.46 1941.82 1600.46 1939.41 1601.15 1939.41 1601.15 1937 1601.15 1934.59 1600.81 1934.59 1600.81 1932.18 1600.81 1929.78 1600.12 1929.78 1600.12 1927.37 1600.12 1924.95 1600.81 1924.95 1600.81 1922.55 1600.81 1920.14 1601.15 1920.14 1601.15 1917.73 1601.15 1915.32 1601.15 1915.32 1601.15 1912.91 1601.15 1910.51 1600.12 1910.51 1600.12 1908.09 1600.12 1905.68 1601.15 1905.68 1601.15 1903.28 1601.15 1901.55 1601.5 1900.18 1601.83 1898.46 1601.83 1896.74 1600.81 1895.02 1601.15 1893.3 1601.5 1891.57 1602.52 1890.2 1603.21 1888.82 1603.56 1887.11 1603.56 1885.38 1604.25 1884.01 1604.94 1882.63 1607 1881.59 1607.69 1880.22 1608.37 1878.84 1609.06 1877.47 1610.1 1876.09 1611.13 1874.72 1611.13 1872.99 1612.16 1871.61 1613.19 1870.24 1614.91 1869.9 1616.29 1868.86 1617.32 1867.84 1618.69 1866.46 1619.73 1865.42 1621.11 1864.4 1621.45 1862.33 1622.83 1861.64 1624.21 1860.61 1626.27 1860.95 1627.65 1860.26 1629.02 1859.57 1630.05 1858.2 1631.77 1857.51 1633.15 1856.82 1634.53 1855.79 1636.25 1855.11 1637.63 1854.76 1639.34 1854.42 1641.07 1854.07 1642.79 1853.73 1644.5 1854.76 1646.23 1854.76 1647.94 1854.76 1649.32 1854.07 1651.04 1854.07 1653.46 1854.07 1653.46 1853.73 1655.86 1853.73 1658.27 1853.73 1658.27 1854.07 1660.68 1854.07 1663.09 1854.07 1663.09 1853.38 1665.5 1853.38 1667.9 1853.38 1667.9 1854.42 1670.32 1854.42 1672.72 1854.42 1672.72 1854.42 1675.13 1854.42 1677.54 1854.42 1677.54 1854.07 1679.95 1854.07 1682.36 1854.07 1682.36 1854.76 1684.76 1854.76 1687.18 1854.76 1687.18 1854.42 1689.59 1854.42 1691.99 1854.42 1691.99 1853.73 1694.4 1853.73 1696.82 1853.73 1696.82 1853.38 1699.22 1853.38 1701.63 1853.38 1701.63 1854.76 1704.03 1854.76 1706.45 1854.76 1706.45 1854.76 1708.86 1854.76 1711.26 1854.76 1711.26 1854.42 1713.67 1854.42 1716.08 1854.42 1716.08 1854.76 1718.49 1854.76 1720.9 1854.76 1720.9 1853.38 1723.31 1853.38 1725.03 1853.38 1726.41 1854.42 1728.12 1854.42 1729.85 1854.42 1731.22 1854.76 1732.95 1855.11 1734.66 1855.44 1736.04 1856.13 1737.41 1856.48 1739.14 1856.82 1740.86 1856.82 1742.24 1857.51 1743.61 1858.2 1744.99 1859.57 1746.37 1860.26 1747.74 1860.95 1749.12 1861.64 1750.49 1862.67 1751.87 1863.71 1753.59 1864.05 1754.62 1865.08 1756 1866.11 1757.37 1867.15 1758.41 1868.18 1759.44 1869.21 1759.78 1871.28 1760.81 1872.65 1761.85 1874.03 1763.22 1874.72 1764.26 1876.09 1765.29 1877.47 1766.32 1878.5 1767.35 1879.88 1768.04 1881.26 1768.04 1882.97 1768.73 1884.7 1769.42 1886.07 1769.42 1887.8 1770.1 1889.17 1770.45 1890.55 1770.79 1892.26 1771.14 1893.64 1771.48 1895.36 1771.83 1896.74 1772.17 1898.46 1772.17 1900.18 1772.85 1901.55 1772.85 1903.28 1772.85 1905.68 1772.85 1905.68 1772.85 1908.09 1772.85 1910.51 1772.52 1910.51 1772.52 1912.91 1772.52 1915.32 1772.52 1915.32 1772.52 1917.73 1772.52 1920.14 1773.2 1920.14 1773.2 1922.55 1773.2 1924.95 1772.52 1924.95 1772.52 1927.37 1772.52 1929.78 1773.54 1929.78 1773.54 1932.18 1773.54 1934.59 1773.54 1934.59 1773.54 1937 1773.54 1939.41 1772.52 1939.41 1772.52 1941.82 1772.52 1944.22 1773.2 1944.22 1773.2 1946.64 1773.2 1949.04 1772.85 1949.04 1772.85 1951.45 1772.85 1953.87 1773.89 1953.87 1773.89 1956.27 1773.89 1958.68 1772.85 1958.68 1772.85 1961.09 1772.85 1963.5 1774.24 1963.5 1774.24 1965.91 1774.24 1968.31 1772.52 1968.31 1772.52 1970.72 1772.52 1973.14 1773.54 1973.14 1773.54 1975.54 1773.54 1977.26 1772.85 1978.64 1772.85 1980.35 1772.85 1982.08 1772.85 1983.46 1772.52 1985.18 1772.17 1986.89 1771.48 1988.27 1770.79 1989.65 1770.45 1991.37 1769.76 1992.75 1769.42 1994.12 1768.73 1995.5 1768.73 1997.56 1768.04 1998.94 1767.35 2000.31 1765.64 2001.35 1764.95 2002.73 1763.91 2004.1 1762.88 2005.14 1761.85 2006.52 1760.81 2007.89 1760.12 2009.61 1759.1 2010.64 1758.06 2011.67 1756.35 2012.36 1755.31 2013.39 1753.93 2014.42 1752.56 2015.11 1751.52 2016.15 1750.14 2017.18 1749.12 2018.21 1747.39 2018.9 1746.02 2019.59 1744.64 2020.96 1743.26 2021.65 1741.89 2022.34 1739.83 2021.65 1738.45 2022.34 1737.07 2022.69 1735.35 2023.03 1733.63 2023.37 1731.91 2023.71 1730.53 2025.09 1729.16 2025.09 1726.74 2024.75 1725.03 2025.09 1723.31 2025.09ZM1651.73 1869.9C1650.01 1869.9 1648.63 1869.9 1646.92 1870.24 1645.19 1870.59 1643.82 1871.28 1642.44 1871.61 1640.72 1871.96 1639.34 1872.3 1637.96 1872.99 1636.59 1873.69 1634.53 1873.69 1633.15 1874.38 1631.77 1875.4 1631.43 1877.13 1630.05 1878.5 1628.67 1879.53 1626.61 1879.88 1625.58 1880.91 1624.55 1882.28 1623.86 1883.67 1622.83 1885.04 1621.79 1886.42 1621.79 1888.13 1621.11 1889.51 1620.42 1890.89 1619.38 1892.26 1619.04 1893.99 1618.69 1895.36 1618.35 1897.09 1618.01 1898.8 1617.67 1900.53 1617.32 1901.9 1617.32 1903.62 1617.32 1906.03 1618.01 1906.03 1618.01 1908.44 1618.01 1910.85 1618.35 1910.85 1618.35 1913.26 1618.35 1915.66 1618.35 1915.66 1618.35 1918.07 1618.35 1920.49 1617.32 1920.49 1617.32 1922.89 1617.32 1925.3 1618.69 1925.3 1618.69 1927.7 1618.69 1930.12 1617.67 1930.12 1617.67 1932.53 1617.67 1934.93 1618.01 1934.93 1618.01 1937.35 1618.01 1939.76 1617.32 1939.76 1617.32 1942.16 1617.32 1944.57 1619.04 1944.57 1619.04 1946.98 1619.04 1949.39 1618.01 1949.39 1618.01 1951.8 1618.01 1954.2 1617.67 1954.2 1617.67 1956.62 1617.67 1959.02 1619.04 1959.02 1619.04 1961.43 1619.04 1963.84 1618.01 1963.84 1618.01 1966.25 1618.01 1968.66 1617.67 1968.66 1617.67 1971.06 1617.67 1973.48 1618.69 1973.48 1618.69 1975.89 1618.69 1977.6 1618.01 1979.33 1618.35 1980.7 1618.69 1982.42 1618.35 1984.14 1619.04 1985.52 1619.38 1987.24 1620.08 1988.62 1620.77 1990 1621.45 1991.37 1623.17 1992.4 1624.21 1993.77 1625.23 1995.16 1624.89 1997.22 1626.27 1998.6 1627.3 1999.98 1629.36 2000.31 1630.4 2001.35 1631.77 2002.38 1632.46 2003.75 1633.84 2004.79 1635.21 2005.83 1636.59 2006.85 1637.96 2007.54 1639.34 2008.23 1641.07 2008.23 1642.79 2008.58 1644.17 2008.92 1645.88 2009.61 1647.61 2009.61 1649.32 2009.95 1650.7 2010.64 1652.42 2010.64 1654.83 2010.64 1654.83 2009.27 1657.24 2009.27 1659.65 2009.27 1659.65 2009.95 1662.05 2009.95 1664.46 2009.95 1664.46 2009.61 1666.88 2009.61 1669.28 2009.61 1669.28 2008.92 1671.69 2008.92 1674.09 2008.92 1674.09 2009.61 1676.51 2009.61 1678.92 2009.61 1678.92 2009.95 1681.32 2009.95 1683.74 2009.95 1683.74 2009.95 1686.15 2009.95 1688.55 2009.95 1688.55 2008.92 1690.96 2008.92 1693.37 2008.92 1693.37 2009.95 1695.78 2009.95 1698.19 2009.95 1698.19 2010.29 1700.59 2010.29 1703.01 2010.29 1703.01 2008.58 1705.41 2008.58 1707.82 2008.58 1707.82 2009.27 1710.24 2009.27 1712.64 2009.27 1712.64 2008.58 1715.05 2008.58 1717.45 2008.58 1717.45 2009.95 1719.87 2009.95 1722.28 2009.95 1722.28 2009.61 1724.68 2009.61 1726.41 2009.61 1727.78 2008.58 1729.5 2008.23 1731.22 2007.89 1732.95 2008.58 1734.32 2008.23 1736.04 2007.89 1737.41 2007.2 1738.79 2006.52 1740.16 2005.83 1741.2 2004.1 1742.58 2003.07 1743.95 2002.04 1746.02 2002.38 1747.39 2001.35 1748.77 2000.31 1749.12 1998.6 1750.49 1997.22 1751.52 1995.85 1751.87 1994.47 1752.91 1993.09 1753.93 1991.71 1754.62 1990.33 1755.31 1988.96 1756 1987.58 1757.72 1986.56 1758.41 1984.83 1758.75 1983.46 1758.75 1981.39 1759.1 1980.02 1759.44 1978.29 1759.1 1976.92 1759.1 1975.2 1759.1 1972.79 1759.44 1972.79 1759.44 1970.37 1759.44 1967.97 1758.75 1967.97 1758.75 1965.56 1758.75 1963.16 1759.78 1963.16 1759.78 1960.74 1759.78 1958.33 1759.78 1958.33 1759.78 1955.93 1759.78 1953.52 1759.44 1953.52 1759.44 1951.11 1759.44 1948.7 1760.12 1948.7 1760.12 1946.29 1760.12 1943.89 1759.78 1943.89 1759.78 1941.47 1759.78 1939.06 1759.1 1939.06 1759.1 1936.66 1759.1 1934.24 1758.75 1934.24 1758.75 1931.84 1758.75 1929.43 1760.12 1929.43 1760.12 1927.02 1760.12 1924.61 1760.12 1924.61 1760.12 1922.2 1760.12 1919.8 1759.78 1919.8 1759.78 1917.39 1759.78 1914.97 1760.12 1914.97 1760.12 1912.57 1760.12 1910.16 1758.75 1910.16 1758.75 1907.76 1758.75 1905.34 1759.78 1905.34 1759.78 1902.93 1759.78 1901.21 1759.78 1899.49 1759.44 1898.11 1759.1 1896.4 1759.1 1894.67 1758.75 1893.3 1758.41 1891.57 1757.03 1890.55 1756.35 1888.82 1755.66 1887.45 1755.66 1885.38 1754.62 1884.36 1753.59 1882.97 1752.56 1881.59 1751.52 1880.57 1750.49 1879.19 1748.77 1878.5 1747.74 1877.47 1746.37 1876.44 1744.99 1875.75 1743.61 1874.72 1742.24 1873.69 1741.55 1871.96 1739.83 1871.28 1738.45 1870.59 1736.72 1870.59 1735.01 1870.24 1733.63 1869.9 1731.91 1869.9 1730.19 1869.55 1728.47 1869.21 1727.09 1868.52 1725.37 1868.52 1722.97 1868.52 1722.97 1868.18 1720.55 1868.18 1718.14 1868.18 1718.14 1868.18 1715.74 1868.18 1713.33 1868.18 1713.33 1868.52 1710.92 1868.52 1708.51 1868.52 1708.51 1868.86 1706.1 1868.86 1703.69 1868.86 1703.69 1868.86 1701.28 1868.86 1698.88 1868.86 1698.88 1868.52 1696.47 1868.52 1694.05 1868.52 1694.05 1868.52 1691.65 1868.52 1689.24 1868.52 1689.24 1869.21 1686.84 1869.21 1684.42 1869.21 1684.42 1868.52 1682.01 1868.52 1679.61 1868.52 1679.61 1869.55 1677.2 1869.55 1674.79 1869.55 1674.79 1869.55 1672.38 1869.55 1669.97 1869.55 1669.97 1868.52 1667.56 1868.52 1665.15 1868.52 1665.15 1869.21 1662.74 1869.21 1660.34 1869.21 1660.34 1868.86 1657.92 1868.86 1654.15 1869.21 1654.15 1869.9 1651.73 1869.9Z" fill="#686868" fill-rule="nonzero" fill-opacity="1" transform="matrix(1.00366 0 0 1 -2167.55 -774.986)"/><path d="M1687.52 1982.77C1685.8 1982.77 1684.07 1982.77 1682.7 1982.77 1680.98 1982.42 1679.26 1982.77 1677.88 1982.42 1676.17 1982.08 1674.79 1981.04 1673.41 1980.7 1671.69 1980.02 1670.32 1979.67 1668.94 1978.98 1667.56 1978.29 1665.84 1977.6 1664.46 1976.92 1663.09 1975.89 1662.05 1974.51 1661.02 1973.48 1659.65 1972.45 1658.27 1971.41 1657.24 1970.37 1656.21 1969.35 1654.83 1968.31 1653.8 1966.94 1652.77 1965.56 1652.07 1964.18 1651.04 1962.81 1650.01 1961.43 1649.32 1960.06 1648.63 1958.68 1647.94 1957.3 1647.61 1955.58 1647.26 1953.87 1646.57 1952.49 1645.88 1950.76 1645.54 1949.39 1645.19 1947.66 1645.19 1946.29 1644.85 1944.57 1644.5 1942.85 1644.5 1941.47 1644.5 1939.76 1644.5 1938.03 1645.19 1936.66 1645.19 1934.93 1645.54 1933.22 1645.19 1931.49 1645.54 1930.12 1645.88 1928.4 1646.57 1927.02 1647.26 1925.64 1647.94 1923.93 1647.94 1922.2 1648.63 1920.83 1649.32 1919.45 1651.04 1918.42 1651.73 1917.04 1652.77 1915.66 1653.46 1914.29 1654.15 1912.91 1655.17 1911.53 1656.55 1910.51 1657.59 1909.47 1658.61 1908.44 1659.99 1907.07 1661.02 1906.03 1662.4 1904.99 1663.43 1903.97 1664.81 1902.93 1666.19 1901.9 1667.9 1901.55 1669.28 1900.87 1670.66 1900.18 1672.03 1899.15 1673.76 1898.46 1675.13 1897.78 1676.86 1897.78 1678.57 1897.43 1680.3 1897.09 1681.67 1896.74 1683.39 1896.74 1685.11 1896.4 1686.49 1896.05 1688.21 1896.05 1689.93 1896.05 1691.65 1896.05 1693.03 1896.05 1694.74 1896.4 1696.47 1896.4 1697.84 1897.09 1699.57 1897.43 1700.94 1898.11 1702.66 1898.46 1704.38 1899.15 1705.76 1899.49 1707.13 1900.18 1708.51 1900.87 1710.24 1901.55 1711.61 1902.59 1712.99 1903.62 1714.01 1904.65 1715.39 1905.68 1716.77 1906.72 1718.14 1907.41 1719.18 1908.44 1720.21 1909.47 1721.24 1910.85 1722.28 1912.22 1723.31 1913.6 1723.99 1914.97 1725.03 1916.35 1726.06 1917.73 1727.09 1918.76 1727.78 1920.49 1728.47 1921.86 1728.47 1923.58 1729.16 1925.3 1729.85 1926.68 1730.53 1928.4 1730.88 1929.78 1731.22 1931.49 1731.22 1932.87 1731.57 1934.59 1731.91 1936.31 1731.91 1937.68 1731.91 1939.41 1731.91 1941.13 1731.91 1942.51 1731.57 1944.22 1731.22 1945.95 1731.57 1947.66 1731.22 1949.04 1730.88 1950.76 1730.88 1952.49 1730.19 1953.87 1729.5 1955.58 1728.81 1956.96 1727.78 1958.33 1727.09 1959.71 1725.72 1961.09 1725.03 1962.47 1723.99 1963.84 1723.31 1965.22 1722.28 1966.6 1721.24 1967.97 1720.21 1969.35 1719.18 1970.37 1718.14 1971.41 1716.77 1972.45 1715.39 1973.48 1714.01 1974.51 1712.99 1975.54 1711.61 1976.58 1710.24 1977.6 1708.86 1978.29 1707.13 1978.98 1705.76 1979.67 1704.38 1980.7 1702.66 1981.04 1701.28 1981.73 1699.57 1981.73 1697.84 1982.08 1696.12 1982.42 1694.74 1983.12 1693.03 1983.12 1690.96 1983.12 1689.24 1982.77 1687.52 1982.77ZM1687.52 1910.85C1685.8 1910.85 1684.07 1911.19 1682.7 1911.53 1680.98 1911.88 1679.61 1912.57 1678.23 1913.26 1676.51 1913.95 1675.13 1914.29 1673.76 1914.97 1672.38 1915.66 1671 1917.04 1669.97 1918.07 1668.59 1919.11 1667.9 1920.49 1666.88 1921.86 1665.84 1923.24 1664.13 1923.93 1663.43 1925.3 1662.74 1926.68 1662.05 1928.4 1661.71 1929.78 1661.02 1931.15 1661.02 1932.87 1660.68 1934.59 1660.34 1936.31 1659.99 1937.68 1659.99 1939.41 1659.99 1941.13 1660.34 1942.51 1660.68 1944.22 1661.02 1945.95 1661.02 1947.66 1661.36 1949.04 1662.05 1950.76 1663.09 1951.8 1663.78 1953.18 1664.46 1954.55 1665.5 1955.93 1666.53 1957.3 1667.56 1958.68 1668.59 1959.71 1669.97 1960.74 1671.34 1961.78 1672.38 1963.16 1673.76 1963.84 1675.13 1964.53 1676.86 1965.22 1678.23 1965.56 1679.61 1966.25 1681.32 1966.94 1683.05 1966.94 1684.76 1967.28 1686.15 1966.6 1687.86 1966.6 1689.59 1966.6 1691.3 1967.28 1692.68 1966.94 1694.4 1966.6 1695.78 1965.91 1697.5 1965.22 1699.22 1964.53 1700.59 1964.18 1701.97 1963.16 1703.35 1962.47 1704.72 1961.43 1706.1 1960.4 1707.47 1959.37 1708.17 1957.99 1709.55 1956.62 1710.57 1955.24 1711.95 1954.2 1712.64 1952.83 1713.33 1951.45 1713.67 1949.73 1714.36 1948.01 1715.05 1946.64 1715.74 1944.91 1716.08 1943.2 1716.43 1941.47 1716.43 1940.1 1716.43 1938.37 1716.43 1936.66 1716.08 1934.93 1715.74 1933.56 1715.39 1931.84 1714.7 1930.47 1714.36 1929.09 1713.67 1927.37 1712.99 1925.99 1712.3 1924.61 1711.61 1923.24 1710.57 1921.86 1709.55 1920.49 1708.51 1919.11 1707.47 1918.07 1706.1 1917.04 1704.72 1916.01 1703.69 1914.97 1701.97 1914.29 1700.59 1913.6 1699.22 1912.22 1697.84 1911.88 1696.47 1911.19 1694.74 1911.19 1693.03 1911.19 1690.96 1911.19 1689.24 1910.85 1687.52 1910.85Z" fill="#686868" fill-rule="nonzero" fill-opacity="1" transform="matrix(1.00366 0 0 1 -2167.55 -774.986)"/><path d="M1733.29 1883.32C1735.01 1883.32 1737.07 1884.01 1738.45 1884.7 1740.16 1885.73 1741.2 1887.11 1742.24 1888.48 1743.26 1889.86 1743.61 1891.57 1743.61 1893.64 1743.61 1895.36 1742.93 1897.09 1741.89 1898.8 1740.86 1900.53 1739.83 1901.55 1738.1 1902.59 1736.72 1903.62 1735.01 1903.97 1732.95 1903.97 1731.22 1903.97 1729.5 1903.28 1727.78 1902.59 1726.06 1901.55 1724.68 1900.53 1723.99 1898.8 1722.97 1897.43 1722.62 1895.36 1722.62 1893.64 1722.62 1891.92 1722.97 1889.86 1723.99 1888.48 1725.03 1886.76 1726.41 1885.73 1727.78 1884.7 1729.5 1884.01 1731.57 1883.32 1733.29 1883.32Z" fill="#686868" fill-rule="nonzero" fill-opacity="1" transform="matrix(1.00366 0 0 1 -2167.55 -774.986)"/><path d="M2467.61 1925.3C2467.61 1927.02 2465.21 1928.4 2465.21 1930.12 2465.21 1931.84 2465.55 1933.22 2465.55 1934.93 2465.55 1936.66 2465.9 1938.03 2465.9 1939.76 2465.9 1941.47 2465.9 1942.85 2465.9 1944.57 2465.55 1946.29 2466.24 1948.01 2465.9 1949.39 2465.55 1951.11 2465.21 1952.49 2464.86 1954.2 2464.52 1955.93 2463.15 1956.96 2462.8 1958.68 2462.46 1960.4 2462.8 1962.12 2462.46 1963.5 2462.11 1965.22 2462.11 1966.6 2461.77 1968.31 2461.42 1969.69 2459.36 1971.06 2459.02 1972.45 2458.67 1973.82 2457.3 1975.2 2456.61 1976.58 2455.92 1977.95 2456.61 1980.02 2455.92 1981.39 2455.23 1982.77 2455.92 1984.83 2455.23 1986.21 2454.54 1987.58 2451.79 1988.27 2451.1 1989.65 2450.42 1991.02 2450.42 1992.75 2449.73 1994.12 2449.04 1995.5 2447.32 1996.54 2446.63 1997.91 2445.94 1999.29 2447.32 2002.04 2446.63 2003.41 2445.94 2004.79 2444.56 2005.83 2443.53 2007.2 2442.5 2008.58 2441.12 2009.61 2440.09 2010.64 2439.06 2012.02 2438.71 2013.39 2437.69 2014.77 2436.65 2016.15 2434.92 2016.83 2434.24 2018.21 2433.21 2019.59 2432.52 2020.96 2431.48 2022.34 2430.46 2023.71 2428.73 2024.06 2427.71 2025.44 2426.67 2026.46 2426.67 2028.54 2425.29 2029.91 2424.27 2030.94 2422.19 2031.29 2421.17 2032.32 2420.13 2033.35 2419.44 2035.07 2418.41 2036.11 2417.38 2037.13 2415.31 2037.48 2413.94 2038.52 2412.91 2039.54 2411.87 2040.92 2410.5 2041.96 2409.12 2042.98 2409.46 2045.74 2408.43 2046.77 2407.06 2047.8 2405.68 2048.49 2404.31 2049.52 2402.93 2050.56 2401.89 2051.59 2400.52 2052.63 2399.14 2053.65 2396.73 2052.63 2395.35 2053.31 2393.98 2054 2393.29 2056.06 2391.91 2056.75 2390.54 2057.44 2388.47 2057.09 2387.1 2057.78 2385.72 2058.47 2385.37 2061.23 2384 2061.92 2382.62 2062.6 2380.22 2061.57 2378.83 2062.26 2377.46 2062.94 2376.08 2063.63 2374.37 2064.32 2372.99 2065.01 2371.62 2066.38 2370.24 2066.73 2368.86 2067.42 2367.14 2067.07 2365.42 2067.76 2364.04 2068.45 2363.01 2070.86 2361.64 2071.21 2360.26 2071.55 2357.85 2069.48 2356.12 2070.17 2354.75 2070.51 2353.37 2071.55 2351.66 2071.9 2349.93 2072.24 2348.56 2072.92 2347.18 2073.27 2345.46 2073.61 2344.08 2073.27 2342.36 2073.61 2340.64 2073.96 2339.61 2075.34 2337.89 2075.68 2336.17 2076.02 2334.79 2075.68 2333.07 2075.68 2331.35 2076.02 2329.97 2076.71 2328.26 2077.05 2326.53 2077.05 2325.16 2077.05 2323.43 2077.05 2321.72 2077.05 2320.34 2077.05 2318.62 2077.05 2316.9 2077.05 2315.53 2076.02 2313.8 2076.02 2312.08 2076.02 2310.7 2076.02 2308.99 2076.02 2307.26 2076.02 2305.89 2075.68 2304.17 2075.68 2302.45 2075.68 2300.72 2077.74 2299.35 2077.4 2297.63 2077.4 2296.26 2074.99 2294.88 2074.99 2293.15 2074.65 2291.78 2074.3 2290.05 2073.96 2288.34 2073.61 2286.61 2075.68 2284.9 2075.34 2283.17 2074.99 2281.8 2074.3 2280.07 2073.96 2278.36 2073.61 2276.98 2072.92 2275.26 2072.58 2273.54 2072.24 2271.82 2072.92 2270.44 2072.24 2269.07 2071.9 2267.69 2070.17 2266.32 2069.48 2264.94 2069.13 2262.88 2069.13 2261.5 2068.45 2260.12 2067.76 2258.75 2066.38 2257.36 2065.7 2255.99 2065.01 2254.61 2064.32 2252.9 2063.63 2251.52 2062.94 2249.46 2063.29 2248.08 2062.6 2246.7 2061.92 2245.32 2061.23 2243.6 2060.54 2242.23 2059.84 2240.5 2059.16 2239.13 2058.47 2237.75 2057.78 2237.41 2055.03 2236.03 2054.34 2234.65 2053.65 2233.28 2052.96 2231.9 2051.94 2230.52 2050.9 2228.46 2051.59 2227.09 2050.56 2225.71 2049.52 2225.02 2048.15 2223.65 2047.11 2222.27 2046.08 2221.92 2044.36 2220.55 2043.33 2219.17 2042.3 2217.45 2042.3 2216.08 2041.27 2214.7 2040.23 2212.98 2039.89 2211.94 2038.86 2210.91 2037.82 2210.91 2035.07 2209.88 2034.04 2208.85 2033 2207.47 2031.98 2206.44 2030.6 2205.41 2029.57 2203 2029.57 2201.96 2028.19 2200.93 2027.15 2200.59 2025.09 2199.56 2024.06 2198.52 2023.03 2196.81 2022.34 2195.77 2020.96 2194.74 2019.59 2193.71 2018.56 2192.68 2017.18 2191.64 2015.8 2189.92 2015.11 2188.89 2013.73 2187.85 2012.36 2189.58 2009.61 2188.54 2008.23 2187.52 2006.85 2185.79 2006.52 2184.76 2005.14 2184.08 2003.75 2183.73 2002.04 2183.04 2000.66 2182.35 1999.29 2179.6 1998.94 2178.91 1997.56 2178.22 1996.19 2177.19 1994.81 2176.5 1993.43 2175.81 1992.06 2176.5 1990 2175.81 1988.27 2175.12 1986.89 2174.44 1985.18 2173.75 1983.8 2173.06 1982.42 2173.06 1980.7 2172.37 1979.33 2171.68 1977.95 2170.66 1976.58 2170.31 1974.85 2169.62 1973.48 2169.62 1971.75 2169.27 1970.04 2168.93 1968.66 2168.93 1966.94 2168.24 1965.22 2167.9 1963.84 2167.21 1962.12 2166.52 1960.74 2166.18 1959.02 2165.14 1957.99 2164.8 1956.27 2164.46 1954.55 2163.77 1953.18 2163.43 1951.45 2163.08 1949.73 2162.05 1948.35 2161.7 1946.98 2161.36 1945.26 2162.74 1943.54 2162.39 1942.16 2162.05 1940.45 2162.05 1939.06 2162.05 1937.35 2162.05 1935.62 2162.05 1934.24 2162.05 1932.53 2162.05 1930.81 2161.7 1929.43 2161.36 1927.7 2161.36 1925.99 2159.64 1924.61 2159.64 1922.89 2159.64 1921.17 2159.99 1919.8 2159.99 1918.07 2159.99 1916.35 2159.99 1914.97 2159.99 1913.26 2159.99 1911.53 2162.39 1910.16 2162.39 1908.78 2162.39 1907.07 2161.36 1905.34 2161.36 1903.97 2161.7 1902.24 2162.74 1900.87 2163.08 1899.49 2163.43 1897.78 2163.08 1896.4 2163.43 1894.67 2163.77 1892.95 2163.43 1891.24 2163.77 1889.86 2164.12 1888.13 2165.83 1887.11 2166.18 1885.38 2166.52 1883.67 2167.21 1882.28 2167.56 1880.91 2167.9 1879.53 2167.56 1877.47 2168.24 1876.09 2168.58 1874.72 2169.27 1872.99 2169.62 1871.61 2170.31 1870.24 2172.03 1869.21 2172.37 1867.49 2173.06 1866.11 2172.37 1864.05 2173.06 1862.67 2173.75 1861.3 2175.47 1860.26 2176.16 1858.88 2176.85 1857.51 2175.81 1855.11 2176.5 1853.73 2177.19 1852.35 2177.19 1850.63 2178.22 1849.25 2178.91 1847.88 2179.94 1846.5 2180.63 1845.13 2181.32 1843.75 2183.04 1842.71 2184.08 1841.69 2185.1 1840.31 2186.83 1839.61 2187.85 1838.24 2188.89 1836.86 2189.58 1835.48 2190.61 1834.46 2191.64 1833.08 2190.96 1830.67 2191.98 1829.64 2193.02 1828.26 2195.08 1827.92 2195.77 1826.54 2196.81 1825.17 2198.87 1824.82 2199.9 1823.79 2200.93 1822.75 2200.25 1820 2201.62 1818.63 2202.65 1817.59 2204.37 1816.9 2205.41 1815.53 2206.44 1814.15 2207.81 1813.46 2208.85 1812.43 2209.88 1811.4 2210.57 1809.68 2211.94 1808.65 2212.98 1807.62 2215.73 1807.96 2216.77 1806.92 2218.14 1805.89 2217.79 1803.14 2219.17 1802.46 2220.55 1801.42 2221.92 1800.73 2223.3 1800.04 2224.67 1799.02 2225.36 1797.29 2226.75 1796.26 2228.12 1795.23 2230.19 1795.57 2231.56 1794.88 2232.94 1794.19 2234.65 1793.5 2236.03 1792.81 2237.41 1792.13 2239.13 1791.44 2240.5 1790.75 2241.88 1790.06 2243.26 1789.04 2244.63 1788.35 2246.01 1787.66 2247.38 1786.28 2248.77 1785.6 2250.15 1784.91 2251.86 1784.91 2253.24 1784.21 2254.61 1783.52 2256.34 1783.87 2258.05 1783.18 2259.44 1782.5 2261.15 1782.15 2262.53 1781.46 2263.9 1780.77 2265.63 1780.43 2267 1780.08 2268.38 1779.74 2269.76 1778.02 2271.13 1777.68 2272.51 1777.33 2274.23 1776.99 2275.61 1776.3 2277.32 1775.96 2278.7 1775.62 2280.42 1775.27 2282.15 1774.93 2283.52 1773.54 2284.9 1773.54 2286.61 1773.2 2288.34 1773.89 2289.71 1773.54 2291.44 1773.2 2292.82 1772.52 2294.53 1772.17 2296.26 1771.83 2297.97 1772.85 2299.35 1772.52 2301.07 1772.52 2302.45 1770.1 2303.82 1770.1 2305.55 1770.1 2307.26 1772.17 2308.64 1772.17 2310.36 1772.17 2311.74 1772.17 2313.45 1772.17 2315.18 1772.17 2316.55 1772.85 2318.28 1772.85 2319.99 1772.85 2321.37 1772.17 2323.09 1772.52 2324.82 1772.52 2326.19 1773.2 2327.91 1773.2 2329.63 1773.2 2331.35 1771.14 2333.07 1771.48 2334.79 1771.83 2336.17 1773.2 2337.55 1773.54 2339.26 1773.89 2340.99 1773.2 2342.36 1773.2 2344.08 1773.54 2345.8 1773.2 2347.18 1773.54 2348.91 1773.89 2350.28 1774.24 2352 1774.58 2353.72 1774.93 2354.75 1777.33 2356.12 1777.68 2357.5 1778.02 2359.57 1777.68 2360.95 1778.37 2362.32 1778.71 2364.04 1779.74 2365.42 1780.08 2366.79 1780.77 2367.83 1782.5 2369.55 1782.83 2370.93 1783.52 2373.33 1781.81 2375.06 1782.5 2376.43 1783.18 2376.77 1786.28 2378.5 1786.97 2379.87 1787.66 2381.6 1788 2382.97 1788.69 2384.35 1789.37 2386.75 1788.69 2388.13 1789.37 2389.5 1790.06 2390.89 1791.1 2392.26 1792.13 2393.64 1792.81 2393.98 1795.23 2395.35 1796.26 2396.73 1797.29 2398.79 1796.6 2400.17 1797.64 2401.55 1798.67 2402.93 1799.35 2403.96 1800.39 2405.33 1801.42 2406.37 1802.46 2407.75 1803.48 2409.12 1804.52 2411.19 1804.17 2412.56 1805.21 2413.94 1806.23 2413.94 1808.65 2414.97 1809.68 2416 1810.71 2416.35 1812.77 2417.73 1813.81 2418.75 1814.84 2421.85 1814.15 2423.23 1815.19 2424.61 1816.21 2425.29 1817.59 2426.33 1818.97 2427.36 1820 2427.71 1822.07 2428.73 1823.1 2429.77 1824.13 2430.11 1826.19 2431.15 1827.23 2432.17 1828.61 2433.9 1828.95 2434.92 1830.33 2435.96 1831.71 2436.65 1833.08 2437.34 1834.46 2438.37 1835.83 2439.4 1836.86 2440.44 1838.24 2441.46 1839.61 2442.5 1840.65 2443.53 1842.02 2444.22 1843.4 2445.94 1844.44 2446.63 1845.81 2447.32 1847.19 2446.63 1849.59 2447.32 1850.98 2448 1852.35 2449.04 1853.73 2449.73 1855.11 2450.42 1856.48 2452.82 1857.17 2453.51 1858.54 2454.2 1859.92 2454.54 1861.64 2455.23 1863.02 2455.92 1864.4 2455.57 1866.46 2456.26 1867.84 2456.96 1869.21 2457.98 1870.59 2458.67 1871.96 2459.36 1873.34 2459.36 1875.06 2460.05 1876.78 2460.4 1878.16 2462.11 1879.53 2462.46 1881.26 2462.8 1882.63 2462.8 1884.36 2463.15 1886.07 2463.49 1887.8 2463.15 1889.51 2463.49 1890.89 2463.84 1892.61 2463.49 1894.33 2463.49 1895.71 2463.84 1897.43 2465.9 1898.46 2466.24 1900.18 2466.59 1901.9 2466.59 1903.28 2466.93 1904.99 2467.28 1906.72 2467.28 1908.09 2467.61 1909.82 2467.61 1911.53 2466.24 1913.26 2466.24 1914.63 2466.24 1916.35 2465.9 1917.73 2465.9 1919.45 2465.55 1922.2 2467.61 1923.58 2467.61 1925.3ZM2394.33 1961.09C2394.33 1958.68 2394.67 1958.68 2394.67 1956.27 2394.67 1953.87 2396.39 1953.87 2396.39 1951.45 2396.39 1949.04 2395.35 1949.04 2395.35 1946.64 2395.35 1944.22 2395.7 1944.22 2395.7 1941.82 2395.7 1939.41 2395.35 1939.41 2395.35 1937 2395.35 1934.59 2393.64 1934.59 2393.64 1932.18 2393.64 1929.78 2395.7 1929.78 2395.7 1927.37 2395.7 1924.95 2393.98 1924.95 2393.98 1922.55 2393.98 1920.14 2395.7 1920.14 2395.7 1917.73 2395.7 1915.32 2394.67 1915.32 2394.67 1912.91 2394.67 1910.51 2396.04 1910.51 2396.04 1908.09 2396.04 1905.68 2393.64 1905.68 2393.64 1903.28 2393.64 1900.87 2393.29 1900.87 2393.29 1898.46 2393.29 1896.05 2395.35 1896.05 2395.35 1893.64 2395.35 1891.24 2395.02 1891.24 2395.02 1888.82 2395.02 1887.11 2395.7 1885.38 2395.35 1884.01 2395.35 1882.28 2392.6 1881.26 2392.26 1879.53 2391.91 1877.82 2393.64 1875.75 2393.29 1874.38 2392.95 1872.65 2390.19 1871.96 2389.5 1870.59 2388.81 1869.21 2390.19 1866.8 2389.5 1865.42 2388.81 1864.05 2388.47 1862.33 2387.44 1860.95 2386.41 1859.57 2384.69 1858.88 2383.66 1857.86 2382.62 1856.48 2382.28 1854.76 2381.25 1853.38 2380.22 1852 2377.12 1853.04 2375.74 1852 2374.37 1850.98 2373.68 1849.59 2372.3 1848.56 2370.93 1847.53 2369.2 1847.53 2367.83 1846.84 2366.45 1846.15 2365.42 1844.78 2363.7 1844.09 2362.32 1843.4 2361.29 1841.69 2359.57 1841 2358.2 1840.65 2356.12 1841.69 2354.41 1841.34 2352.68 1841 2351.66 1838.92 2349.93 1838.92 2348.22 1838.92 2346.49 1838.24 2345.12 1838.24 2342.7 1838.24 2342.7 1840.31 2340.3 1840.31 2337.89 1840.31 2337.89 1839.61 2335.48 1839.61 2333.07 1839.61 2333.07 1839.96 2330.66 1839.96 2328.26 1839.96 2328.26 1838.92 2325.84 1838.92 2323.43 1838.92 2323.43 1840.31 2321.03 1840.31 2318.62 1840.31 2318.62 1841.34 2316.21 1841.34 2313.8 1841.34 2313.8 1841.69 2311.39 1841.69 2308.99 1841.69 2308.99 1840.65 2306.57 1840.65 2304.17 1840.65 2304.17 1840.65 2301.76 1840.65 2299.35 1840.65 2299.35 1838.92 2296.94 1838.92 2294.53 1838.92 2294.53 1841.69 2292.13 1841.69 2289.71 1841.69 2289.71 1839.61 2287.3 1839.61 2284.9 1839.61 2284.9 1841 2282.49 1841 2280.07 1841 2280.07 1840.65 2277.67 1840.65 2275.26 1840.65 2275.26 1841 2272.86 1841 2271.13 1841 2269.41 1839.27 2268.03 1839.61 2266.32 1839.61 2265.28 1842.37 2263.56 1842.71 2261.84 1843.06 2260.46 1843.4 2259.09 1843.75 2257.36 1844.09 2255.65 1843.4 2254.27 1844.09 2252.9 1844.78 2250.83 1844.78 2249.46 1845.46 2248.08 1846.15 2246.36 1846.84 2244.98 1847.88 2243.6 1848.9 2243.6 1851.32 2242.23 1852.35 2240.85 1853.38 2238.79 1853.38 2237.75 1854.42 2236.73 1855.44 2235.69 1856.82 2234.65 1858.2 2233.63 1859.57 2232.59 1860.95 2231.9 1862.33 2230.87 1863.71 2231.56 1865.77 2230.52 1867.15 2229.84 1868.52 2228.46 1869.55 2227.77 1871.28 2227.09 1872.65 2225.36 1873.69 2224.67 1875.4 2224.33 1876.78 2225.02 1878.84 2224.67 1880.57 2224.33 1882.28 2222.96 1883.67 2222.61 1885.04 2222.61 1886.76 2222.61 1888.48 2222.61 1889.86 2222.61 1892.26 2223.98 1892.26 2223.98 1894.67 2223.98 1897.09 2221.92 1897.09 2221.92 1899.49 2221.92 1901.9 2222.27 1901.9 2222.27 1904.31 2222.27 1906.72 2221.92 1906.72 2221.92 1909.13 2221.92 1911.53 2222.96 1911.53 2222.96 1913.95 2222.96 1916.35 2222.96 1916.35 2222.96 1918.76 2222.96 1921.17 2224.67 1921.17 2224.67 1923.58 2224.67 1925.99 2222.61 1925.99 2222.61 1928.4 2222.61 1930.81 2222.61 1930.81 2222.61 1933.22 2222.61 1935.62 2224.67 1935.62 2224.67 1938.03 2224.67 1940.45 2223.3 1940.45 2223.3 1942.85 2223.3 1945.26 2222.96 1945.26 2222.96 1947.66 2222.96 1950.08 2224.33 1950.08 2224.33 1952.49 2224.33 1954.89 2224.67 1954.89 2224.67 1957.3 2224.67 1959.71 2223.65 1959.71 2223.65 1962.12 2223.65 1963.84 2224.67 1965.22 2225.02 1966.94 2225.02 1968.66 2224.33 1970.37 2224.67 1971.75 2225.02 1973.48 2225.36 1974.85 2225.71 1976.58 2226.06 1978.29 2225.71 1980.02 2226.4 1981.73 2227.09 1983.12 2229.84 1983.8 2230.87 1985.18 2231.56 1986.56 2231.56 1988.62 2232.25 1990 2233.28 1991.37 2235 1991.71 2236.03 1993.09 2237.06 1994.47 2238.1 1995.5 2239.13 1996.54 2240.17 1997.56 2240.5 1999.98 2241.54 2001 2242.92 2002.04 2245.32 2001.35 2246.36 2002.38 2247.73 2003.41 2248.77 2004.44 2250.15 2005.14 2251.52 2005.83 2252.21 2008.23 2253.58 2008.92 2254.96 2009.61 2257.02 2008.58 2258.75 2009.27 2260.12 2009.61 2261.5 2011.33 2263.22 2011.67 2264.94 2012.02 2266.32 2012.71 2268.03 2013.05 2269.76 2013.05 2271.48 2013.39 2272.86 2013.39 2275.26 2013.39 2275.26 2013.39 2277.67 2013.39 2280.07 2013.39 2280.07 2012.02 2282.49 2012.02 2284.9 2012.02 2284.9 2011.33 2287.3 2011.33 2289.71 2011.33 2289.71 2012.36 2292.13 2012.36 2294.53 2012.36 2294.53 2013.39 2296.94 2013.39 2299.35 2013.39 2299.35 2011.67 2301.76 2011.67 2304.17 2011.67 2304.17 2010.98 2306.57 2010.98 2308.99 2010.98 2308.99 2011.33 2311.39 2011.33 2313.8 2011.33 2313.8 2013.05 2316.21 2013.05 2318.62 2013.05 2318.62 2010.98 2321.03 2010.98 2323.43 2010.98 2323.43 2013.73 2325.84 2013.73 2328.26 2013.73 2328.26 2012.02 2330.66 2012.02 2333.07 2012.02 2333.07 2011.67 2335.48 2011.67 2337.89 2011.67 2337.89 2011.33 2340.3 2011.33 2342.7 2011.33 2342.7 2012.02 2345.12 2012.02 2346.84 2012.02 2348.56 2014.08 2350.28 2013.73 2352 2013.73 2353.37 2011.67 2354.75 2011.33 2356.47 2010.98 2358.2 2011.67 2359.57 2010.98 2361.29 2010.64 2362.66 2009.95 2364.04 2009.27 2365.42 2008.58 2367.48 2008.23 2368.86 2007.54 2370.24 2006.85 2370.93 2004.44 2371.96 2003.41 2373.33 2002.38 2375.74 2003.07 2377.12 2002.04 2378.5 2001 2378.83 1998.94 2379.87 1997.91 2380.91 1996.87 2382.97 1996.54 2384 1995.16 2385.04 1993.77 2386.06 1992.4 2387.1 1991.02 2388.13 1989.65 2387.1 1987.24 2387.79 1985.87 2388.47 1984.49 2388.81 1982.77 2389.5 1981.39 2390.19 1980.02 2391.23 1978.64 2391.91 1977.26 2392.26 1975.89 2393.29 1974.16 2393.29 1972.79 2393.64 1971.06 2393.64 1969.69 2393.98 1967.97 2395.02 1964.18 2394.33 1962.47 2394.33 1961.09ZM2274.23 1855.11C2276.63 1855.11 2276.63 1856.13 2279.05 1856.13 2281.46 1856.13 2281.46 1855.79 2283.86 1855.79 2286.28 1855.79 2286.28 1855.11 2288.68 1855.11 2291.09 1855.11 2291.09 1856.48 2293.5 1856.48 2295.91 1856.48 2295.91 1856.82 2298.32 1856.82 2300.72 1856.82 2300.72 1855.79 2303.13 1855.79 2305.55 1855.79 2305.55 1855.79 2307.95 1855.79 2310.36 1855.79 2310.36 1857.17 2312.76 1857.17 2315.18 1857.17 2315.18 1855.79 2317.59 1855.79 2319.99 1855.79 2319.99 1857.17 2322.41 1857.17 2324.82 1857.17 2324.82 1855.44 2327.22 1855.44 2329.63 1855.44 2329.63 1854.76 2332.04 1854.76 2334.45 1854.76 2334.45 1854.76 2336.86 1854.76 2339.26 1854.76 2339.26 1855.79 2341.68 1855.79 2344.08 1855.79 2344.08 1857.17 2346.49 1857.17 2348.22 1857.17 2349.59 1857.17 2351.31 1857.51 2353.03 1857.86 2354.75 1856.13 2356.47 1856.82 2358.2 1857.17 2359.22 1858.88 2360.6 1859.57 2361.98 1860.26 2362.66 1861.98 2364.04 1863.02 2365.42 1864.05 2367.83 1863.02 2369.2 1864.05 2370.58 1865.08 2371.27 1866.8 2372.3 1867.84 2373.33 1869.21 2374.37 1870.59 2375.06 1871.96 2376.08 1873.34 2377.46 1874.38 2378.15 1875.75 2378.83 1877.13 2377.46 1879.53 2377.81 1880.91 2378.15 1882.28 2380.56 1883.67 2380.91 1885.04 2381.25 1886.76 2380.91 1888.48 2380.91 1889.86 2380.91 1892.26 2381.93 1892.26 2381.93 1894.67 2381.93 1897.09 2380.56 1897.09 2380.56 1899.49 2380.56 1901.9 2379.87 1901.9 2379.87 1904.31 2379.87 1906.72 2379.52 1906.72 2379.52 1909.13 2379.52 1911.53 2379.87 1911.53 2379.87 1913.95 2379.87 1916.35 2380.56 1916.35 2380.56 1918.76 2380.56 1921.17 2379.87 1921.17 2379.87 1923.58 2379.87 1925.99 2379.18 1925.99 2379.18 1928.4 2379.18 1930.81 2379.18 1930.81 2379.18 1933.22 2379.18 1935.62 2379.18 1935.62 2379.18 1938.03 2379.18 1940.45 2380.22 1940.45 2380.22 1942.85 2380.22 1945.26 2380.22 1945.26 2380.22 1947.66 2380.22 1950.08 2379.87 1950.08 2379.87 1952.49 2379.87 1954.89 2380.91 1954.89 2380.91 1957.3 2380.91 1959.71 2379.87 1959.71 2379.87 1962.12 2379.87 1963.84 2380.56 1965.56 2380.22 1966.94 2379.87 1968.66 2378.5 1970.04 2378.15 1971.41 2377.81 1973.14 2379.18 1975.2 2378.5 1976.92 2377.81 1978.29 2375.06 1978.98 2374.37 1980.02 2373.33 1981.39 2372.3 1982.42 2371.27 1983.8 2370.24 1985.18 2368.86 1985.87 2367.48 1986.89 2366.1 1987.93 2365.42 1989.31 2364.04 1990.33 2362.66 1991.37 2361.29 1991.71 2359.91 1992.4 2358.54 1993.09 2357.85 1995.85 2356.12 1996.19 2354.75 1996.54 2352.68 1995.5 2350.97 1995.85 2349.24 1996.19 2347.87 1997.22 2346.14 1997.22 2343.74 1997.22 2343.74 1997.91 2341.33 1997.91 2338.93 1997.91 2338.93 1997.91 2336.51 1997.91 2334.1 1997.91 2334.1 1995.85 2331.7 1995.85 2329.28 1995.85 2329.28 1996.87 2326.88 1996.87 2324.47 1996.87 2324.47 1996.54 2322.06 1996.54 2319.65 1996.54 2319.65 1995.16 2317.24 1995.16 2314.84 1995.16 2314.84 1997.56 2312.43 1997.56 2310.01 1997.56 2310.01 1994.81 2307.61 1994.81 2305.2 1994.81 2305.2 1995.16 2302.8 1995.16 2300.38 1995.16 2300.38 1996.87 2297.97 1996.87 2295.57 1996.87 2295.57 1996.54 2293.15 1996.54 2290.74 1996.54 2290.74 1994.81 2288.34 1994.81 2285.93 1994.81 2285.93 1996.54 2283.52 1996.54 2281.11 1996.54 2281.11 1996.54 2278.7 1996.54 2276.3 1996.54 2276.3 1996.19 2273.88 1996.19 2272.17 1996.19 2270.44 1997.56 2268.72 1997.56 2267 1997.22 2265.63 1995.16 2264.25 1994.81 2262.53 1994.47 2261.84 1992.75 2260.12 1992.06 2258.75 1991.37 2255.99 1993.09 2254.61 1992.06 2253.24 1991.02 2252.21 1989.65 2250.83 1988.62 2249.46 1987.58 2249.11 1985.87 2248.08 1984.49 2247.04 1983.12 2247.04 1981.39 2246.01 1980.02 2244.98 1978.64 2243.6 1977.95 2242.92 1976.23 2242.23 1974.85 2242.23 1973.14 2241.54 1971.41 2241.19 1970.04 2240.5 1968.31 2240.17 1966.94 2239.82 1965.22 2239.48 1963.84 2239.48 1962.12 2239.48 1959.71 2238.79 1959.71 2238.79 1957.3 2238.79 1954.89 2240.5 1954.89 2240.5 1952.49 2240.5 1950.08 2240.17 1950.08 2240.17 1947.66 2240.17 1945.26 2238.44 1945.26 2238.44 1942.85 2238.44 1940.45 2238.79 1940.45 2238.79 1938.03 2238.79 1935.62 2239.48 1935.62 2239.48 1933.22 2239.48 1930.81 2238.79 1930.81 2238.79 1928.4 2238.79 1925.99 2239.13 1925.99 2239.13 1923.58 2239.13 1921.17 2238.1 1921.17 2238.1 1918.76 2238.1 1916.35 2238.79 1916.35 2238.79 1913.95 2238.79 1911.53 2239.48 1911.53 2239.48 1909.13 2239.48 1906.72 2240.17 1906.72 2240.17 1904.31 2240.17 1901.9 2238.1 1901.9 2238.1 1899.49 2238.1 1897.09 2238.1 1897.09 2238.1 1894.67 2238.1 1892.26 2238.1 1892.26 2238.1 1889.86 2238.1 1888.13 2239.82 1886.76 2240.17 1885.04 2240.5 1883.32 2241.19 1881.94 2241.54 1880.57 2241.88 1878.84 2242.57 1877.82 2243.26 1876.09 2243.94 1874.72 2244.63 1873.34 2245.67 1871.96 2246.7 1870.59 2245.67 1867.84 2246.7 1866.8 2247.73 1865.42 2249.11 1864.4 2250.48 1863.36 2251.86 1862.33 2253.24 1861.3 2254.61 1860.61 2255.99 1859.57 2257.36 1858.54 2258.75 1857.86 2260.12 1857.17 2261.84 1856.13 2263.22 1855.79 2264.59 1855.44 2266.66 1856.82 2268.38 1856.48 2270.1 1856.13 2271.82 1857.17 2273.54 1857.17 2274.92 1856.82 2273.88 1855.11 2274.23 1855.11ZM2353.72 1925.3C2353.72 1923.58 2353.72 1921.86 2353.72 1920.49 2353.37 1918.76 2354.41 1917.04 2353.72 1915.32 2353.37 1913.6 2352.68 1911.88 2352.34 1910.51 2351.66 1908.78 2351.31 1907.41 2350.62 1905.68 2349.93 1904.31 2347.18 1903.97 2346.14 1902.59 2345.12 1901.21 2345.8 1898.8 2344.77 1897.43 2343.74 1896.05 2342.7 1894.67 2341.68 1893.64 2340.64 1892.61 2337.89 1892.95 2336.51 1891.92 2335.14 1890.89 2334.1 1889.86 2332.72 1888.82 2331.35 1887.8 2329.97 1887.11 2328.6 1886.42 2327.22 1885.73 2325.16 1886.07 2323.78 1885.38 2322.41 1884.7 2321.03 1883.32 2319.65 1882.97 2317.93 1882.63 2316.55 1882.97 2314.84 1882.97 2313.11 1882.63 2311.74 1881.59 2310.01 1881.59 2308.3 1881.59 2306.57 1881.26 2305.2 1881.59 2303.48 1881.94 2302.1 1883.32 2300.72 1883.67 2299.01 1884.01 2297.63 1884.36 2296.26 1885.04 2294.53 1885.73 2293.5 1886.42 2291.78 1887.11 2290.4 1887.8 2287.99 1886.76 2286.61 1887.8 2285.24 1888.82 2283.86 1889.86 2282.84 1890.89 2281.46 1891.92 2281.46 1893.99 2280.07 1895.36 2278.7 1896.74 2277.32 1897.09 2276.3 1898.46 2275.26 1899.84 2273.2 1900.53 2272.51 1901.9 2271.48 1903.28 2271.82 1905.34 2271.13 1906.72 2270.44 1908.09 2270.44 1909.82 2270.1 1911.53 2269.41 1912.91 2267 1913.95 2266.66 1915.66 2266.32 1917.39 2265.97 1919.11 2265.97 1920.49 2265.63 1922.2 2267.34 1923.93 2267.34 1925.64 2267.34 1927.37 2266.32 1929.09 2266.66 1930.47 2267 1932.18 2268.03 1933.56 2268.38 1935.28 2268.72 1937 2269.41 1938.37 2269.76 1939.76 2270.44 1941.47 2271.82 1942.51 2272.51 1943.89 2273.2 1945.26 2271.48 1948.35 2272.51 1949.73 2273.54 1951.11 2275.61 1951.8 2276.63 1952.83 2277.67 1954.2 2278.36 1955.93 2279.39 1956.96 2280.42 1957.99 2283.17 1957.64 2284.21 1958.68 2285.59 1959.71 2286.61 1960.4 2287.99 1961.43 2289.37 1962.47 2290.05 1964.53 2291.44 1965.22 2292.82 1965.91 2294.53 1966.6 2295.91 1967.28 2297.28 1967.97 2299.01 1968.66 2300.72 1969 2302.45 1969.35 2304.17 1969 2305.55 1969.35 2307.26 1969.69 2308.99 1970.04 2310.36 1970.04 2312.08 1970.04 2313.8 1970.37 2315.53 1970.37 2317.24 1970.04 2318.97 1969.69 2320.34 1969.35 2322.06 1969 2323.43 1967.97 2324.82 1967.28 2326.53 1966.6 2327.91 1965.91 2329.28 1965.22 2330.66 1964.53 2331.7 1963.16 2333.07 1962.12 2334.45 1961.09 2336.51 1961.43 2337.89 1960.4 2339.26 1959.37 2340.64 1958.33 2341.68 1957.3 2342.7 1956.27 2344.08 1954.89 2345.12 1953.87 2346.14 1952.49 2346.84 1951.11 2347.87 1949.73 2348.91 1948.35 2348.22 1946.29 2348.91 1944.57 2349.59 1943.2 2350.28 1941.82 2350.97 1940.1 2351.66 1938.72 2351.66 1937 2352 1935.28 2352.34 1933.56 2354.75 1932.53 2355.1 1930.81 2355.1 1928.74 2353.72 1926.68 2353.72 1925.3ZM2337.89 1924.95C2337.89 1926.68 2338.93 1928.4 2338.58 1930.12 2338.24 1931.84 2335.82 1932.87 2335.14 1934.24 2334.45 1935.97 2334.79 1937.35 2333.76 1939.06 2333.07 1940.45 2331.35 1941.13 2330.32 1942.51 2329.28 1943.89 2329.97 1946.98 2328.95 1948.01 2327.57 1949.04 2325.84 1949.73 2324.47 1950.43 2323.09 1951.11 2321.03 1951.11 2319.65 1951.8 2318.28 1952.49 2316.55 1953.18 2314.84 1953.52 2313.11 1953.87 2311.39 1953.18 2310.01 1953.18 2308.3 1953.18 2306.57 1953.52 2305.2 1953.18 2303.48 1952.83 2302.45 1951.45 2300.72 1951.11 2299.01 1950.43 2297.28 1951.11 2295.91 1950.08 2294.53 1949.39 2293.84 1947.32 2292.82 1946.29 2291.44 1945.26 2290.05 1944.57 2288.68 1943.54 2287.65 1942.16 2287.65 1940.45 2286.96 1939.06 2286.28 1937.68 2284.9 1936.66 2284.55 1934.93 2283.86 1933.56 2281.11 1932.53 2280.77 1930.81 2280.42 1929.09 2280.77 1927.37 2280.77 1925.64 2280.77 1923.93 2280.77 1922.2 2281.11 1920.49 2281.46 1918.76 2283.86 1917.73 2284.55 1916.35 2285.24 1914.63 2284.55 1912.91 2285.59 1911.53 2286.28 1910.16 2288.68 1909.82 2289.71 1908.44 2290.74 1907.07 2290.4 1904.31 2291.78 1903.28 2293.15 1902.24 2295.57 1902.93 2296.94 1901.9 2298.32 1901.21 2299.69 1900.53 2301.41 1899.84 2302.8 1899.15 2304.17 1898.11 2305.89 1897.78 2307.61 1897.43 2308.99 1898.11 2310.7 1898.11 2312.43 1898.11 2314.15 1896.4 2315.87 1896.4 2317.59 1896.74 2318.28 1899.84 2319.99 1900.18 2321.72 1900.87 2323.09 1900.87 2324.47 1901.55 2325.84 1902.24 2327.22 1902.93 2328.6 1903.97 2329.97 1904.99 2330.66 1906.38 2331.7 1907.76 2332.72 1909.13 2334.79 1909.47 2335.48 1910.85 2336.17 1912.22 2336.51 1913.95 2336.86 1915.66 2337.55 1917.04 2338.58 1918.42 2338.93 1920.14 2338.24 1921.86 2337.89 1923.58 2337.89 1924.95ZM2346.49 1879.88C2346.49 1881.59 2344.77 1884.36 2345.8 1885.73 2346.84 1887.45 2348.91 1888.48 2350.28 1889.51 2351.66 1890.55 2354.06 1890.2 2355.78 1890.2 2357.5 1890.2 2359.22 1889.17 2360.6 1888.48 2362.32 1887.45 2362.66 1886.07 2363.7 1884.36 2364.73 1882.97 2365.08 1881.59 2365.08 1879.88 2365.08 1878.16 2365.76 1876.09 2365.08 1874.72 2364.04 1872.99 2362.32 1872.3 2360.95 1871.28 2359.57 1870.24 2357.85 1870.24 2355.78 1870.24 2354.06 1870.24 2352 1869.55 2350.28 1870.24 2348.56 1871.28 2346.49 1872.3 2345.46 1873.69 2344.77 1875.75 2346.49 1878.16 2346.49 1879.88Z" fill="#686868" fill-rule="nonzero" fill-opacity="1" transform="matrix(1.00366 0 0 1 -2167.55 -774.986)"/><path d="M2466.59 928.411C2466.59 1013.06 2398.11 1081.54 2313.45 1081.54 2228.81 1081.54 2160.33 1013.06 2160.33 928.411 2160.33 843.76 2228.81 775.282 2313.45 775.282 2398.11 775.282 2466.59 843.76 2466.59 928.411ZM2395.35 963.854 2395.35 892.28C2395.35 865.095 2372.99 842.727 2345.8 842.727L2274.57 842.727C2247.38 842.727 2225.02 865.095 2225.02 892.28L2225.02 964.199C2225.02 991.384 2247.38 1013.75 2274.57 1013.75L2345.8 1013.75C2372.99 1013.75 2395.35 991.384 2395.35 963.854ZM2274.23 858.212 2345.46 858.212C2364.39 858.212 2379.52 873.698 2379.52 892.28L2379.52 964.199C2379.52 983.125 2364.04 998.268 2345.46 998.268L2274.23 998.268C2255.3 998.268 2240.17 982.781 2240.17 964.199L2240.17 892.624C2240.17 873.698 2255.65 858.557 2274.23 858.212ZM2353.72 928.067C2353.72 903.979 2334.1 884.365 2310.01 884.365 2285.93 884.365 2266.32 903.979 2266.32 928.067 2266.32 952.155 2285.93 971.769 2310.01 971.769 2334.1 971.769 2353.72 952.155 2353.72 928.067ZM2338.24 928.067C2338.24 943.552 2325.51 956.284 2310.01 956.284 2294.53 956.284 2281.8 943.552 2281.8 928.067 2281.8 912.582 2294.53 899.85 2310.01 899.85 2325.51 899.85 2338.24 912.582 2338.24 928.067ZM2345.46 882.989C2345.46 888.838 2349.93 893.312 2355.78 893.312 2361.64 893.312 2366.1 888.838 2366.1 882.989 2366.1 877.139 2361.64 872.665 2355.78 872.665 2349.93 872.665 2345.46 877.139 2345.46 882.989Z" fill="url(#fill7)" fill-rule="nonzero" transform="matrix(1.00366 0 0 1 -2167.55 -774.986)"/><path d="M3072.22 1054.7 2944.9 1054.7C2915.65 1054.7 2892.25 1030.96 2892.25 1002.05L2892.25 874.386C2892.25 845.137 2915.99 821.737 2944.9 821.737L3072.22 821.737C3101.47 821.737 3124.87 845.481 3124.87 874.386L3124.87 1002.05C3124.87 1030.96 3101.47 1054.7 3072.22 1054.7Z" fill="url(#fill8)" fill-rule="nonzero" transform="matrix(1.00366 -5.56798e-17 5.56798e-17 1 -2167.55 -774.986)"/><path d="M3044.35 1023.38 2973.12 1023.38C2945.93 1023.38 2923.57 1001.02 2923.57 973.834L2923.57 902.259C2923.57 875.074 2945.93 852.707 2973.12 852.707L3044.35 852.707C3071.53 852.707 3093.9 875.074 3093.9 902.259L3093.9 973.834C3093.9 1001.36 3071.53 1023.38 3044.35 1023.38ZM2972.77 868.536C2954.2 868.536 2938.7 883.677 2938.7 902.603L2938.7 974.178C2938.7 992.76 2953.85 1008.25 2972.77 1008.25L3044 1008.25C3062.59 1008.25 3078.07 993.104 3078.07 974.178L3078.07 902.603C3078.07 884.021 3062.93 868.536 3044 868.536L2972.77 868.536Z" fill="#FFFFFF" fill-rule="nonzero" fill-opacity="1" transform="matrix(1.00366 0 0 1 -2167.55 -774.986)"/><path d="M3008.56 981.749C2984.47 981.749 2964.86 962.135 2964.86 938.047 2964.86 913.959 2984.47 894.344 3008.56 894.344 3032.65 894.344 3052.27 913.959 3052.27 938.047 3052.27 962.135 3032.65 981.749 3008.56 981.749ZM3008.56 909.829C2993.08 909.829 2980.35 922.562 2980.35 938.047 2980.35 953.532 2993.08 966.263 3008.56 966.263 3024.04 966.263 3036.78 953.532 3036.78 938.047 3037.12 922.562 3024.39 909.829 3008.56 909.829Z" fill="#FFFFFF" fill-rule="nonzero" fill-opacity="1" transform="matrix(1.00366 0 0 1 -2167.55 -774.986)"/><path d="M3064.65 892.624C3064.65 898.325 3060.03 902.947 3054.33 902.947 3048.63 902.947 3044 898.325 3044 892.624 3044 886.922 3048.63 882.3 3054.33 882.3 3060.03 882.3 3064.65 886.922 3064.65 892.624Z" fill="#FFFFFF" fill-rule="nonzero" fill-opacity="1" transform="matrix(1.00366 0 0 1 -2167.55 -774.986)"/><path d="M4381.91 1986.21 4381.91 1975.54C4381.91 1965.56 4373.65 1957.3 4363.68 1957.3L4308.27 1957.3C4298.29 1957.3 4290.03 1965.56 4290.03 1975.54L4290.03 1986.21" stroke="#898989" stroke-width="5.16166" stroke-linecap="butt" stroke-linejoin="miter" stroke-miterlimit="10" stroke-opacity="1" fill="none" fill-rule="nonzero" transform="matrix(1.00366 0 0 1 -2167.55 -774.986)"/><path d="M4359.54 1917.73C4359.54 1931.03 4348.76 1941.82 4335.45 1941.82 4322.15 1941.82 4311.36 1931.03 4311.36 1917.73 4311.36 1904.43 4322.15 1893.64 4335.45 1893.64 4348.76 1893.64 4359.54 1904.43 4359.54 1917.73Z" stroke="#898989" stroke-width="5.16166" stroke-linecap="butt" stroke-linejoin="miter" stroke-miterlimit="10" stroke-opacity="1" fill="none" fill-rule="nonzero" transform="matrix(1.00366 0 0 1 -2167.55 -774.986)"/><path d="M3951.77 1926.33C3951.77 1912.22 3963.47 1900.53 3977.58 1900.53 3987.56 1900.53 3996.16 1906.03 4000.29 1914.29 4004.77 1906.03 4013.37 1900.53 4023 1900.53 4037.11 1900.53 4048.81 1912.22 4048.81 1926.33 4048.81 1945.26 4000.64 1979.67 4000.64 1979.67 4000.64 1979.67 3951.77 1944.22 3951.77 1926.33Z" stroke="#898989" stroke-width="5.16166" stroke-linecap="round" stroke-linejoin="round" stroke-miterlimit="10" stroke-opacity="1" fill="none" fill-rule="nonzero" transform="matrix(1.00366 0 0 1 -2167.55 -774.986)"/><path d="M2921.16 1554.7C2921.16 1539.2 2933.89 1526.47 2949.37 1526.47 2960.04 1526.47 2969.68 1532.67 2974.49 1541.62 2979.31 1532.67 2988.6 1526.47 2999.62 1526.47 3015.1 1526.47 3027.83 1539.2 3027.83 1554.7 3027.83 1575.33 2975.18 1613.19 2975.18 1613.19 2975.18 1613.19 2921.16 1574.65 2921.16 1554.7Z" stroke="#898989" stroke-width="5.64892" stroke-linecap="round" stroke-linejoin="round" stroke-miterlimit="10" stroke-opacity="1" fill="none" fill-rule="nonzero" transform="matrix(1.00366 0 0 1 -2167.55 -774.986)"/><path d="M3354.74 1935.62C3354.74 1958.43 3336.25 1976.92 3313.45 1976.92 3290.63 1976.92 3272.15 1958.43 3272.15 1935.62 3272.15 1912.82 3290.63 1894.33 3313.45 1894.33 3336.25 1894.33 3354.74 1912.82 3354.74 1935.62Z" stroke="#898989" stroke-width="5.16166" stroke-linecap="butt" stroke-linejoin="miter" stroke-miterlimit="10" stroke-opacity="1" fill="none" fill-rule="nonzero" transform="matrix(1.00366 0 0 1 -2167.55 -774.986)"/><path d="M3346.14 1964.18 3365.06 1986.56" stroke="#898989" stroke-width="5.16166" stroke-linecap="butt" stroke-linejoin="miter" stroke-miterlimit="10" stroke-opacity="1" fill="none" fill-rule="nonzero" transform="matrix(1.00366 0 0 1 -2167.55 -774.986)"/><path d="M3696.78 1985.52 3623.48 1985.52C3615.23 1985.52 3608.69 1978.64 3608.69 1970.72L3608.69 1924.95C3608.69 1916.7 3615.58 1910.16 3623.48 1910.16L3637.25 1910.16 3644.82 1897.09 3672.69 1897.09 3680.61 1910.16 3696.78 1910.16C3705.05 1910.16 3711.58 1917.04 3711.58 1924.95L3711.58 1970.72C3711.58 1978.98 3705.05 1985.52 3696.78 1985.52Z" stroke="#898989" stroke-width="5.16166" stroke-linecap="round" stroke-linejoin="round" stroke-miterlimit="10" stroke-opacity="1" fill="none" fill-rule="nonzero" transform="matrix(1.00366 0 0 1 -2167.55 -774.986)"/><path d="M3683.36 1944.22C3683.36 1957.53 3672.57 1968.31 3659.27 1968.31 3645.98 1968.31 3635.19 1957.53 3635.19 1944.22 3635.19 1930.92 3645.98 1920.14 3659.27 1920.14 3672.57 1920.14 3683.36 1930.92 3683.36 1944.22Z" stroke="#898989" stroke-width="5.16166" stroke-linecap="butt" stroke-linejoin="miter" stroke-miterlimit="10" stroke-opacity="1" fill="none" fill-rule="nonzero" transform="matrix(1.00366 0 0 1 -2167.55 -774.986)"/><path d="M3373.32 1554.7 3333.06 1554.7C3333.06 1554.7 3296.93 1554.7 3296.93 1588.42L3296.93 1615.94" stroke="#898989" stroke-width="5.16166" stroke-linecap="round" stroke-linejoin="round" stroke-miterlimit="10" stroke-opacity="1" fill="none" fill-rule="nonzero" transform="matrix(1.00366 0 0 1 -2167.55 -774.986)"/><path d="M3347.51 1524.41 3375.04 1554.35 3346.82 1583.94" stroke="#898989" stroke-width="5.16166" stroke-linecap="round" stroke-linejoin="round" stroke-miterlimit="10" stroke-opacity="1" fill="none" fill-rule="nonzero" transform="matrix(1.00366 0 0 1 -2167.55 -774.986)"/><path d="M3179.24 1609.06C3172.01 1613.88 3163.41 1616.63 3154.12 1616.63 3129.34 1616.63 3109.39 1596.67 3109.39 1571.9 3109.39 1547.12 3129.34 1527.16 3154.12 1527.16 3178.89 1527.16 3198.85 1547.12 3198.85 1571.9 3198.85 1579.47 3196.79 1587.04 3193.35 1593.23L3198.85 1615.6 3179.24 1609.06Z" stroke="#898989" stroke-width="5.16166" stroke-linecap="round" stroke-linejoin="round" stroke-miterlimit="10" stroke-opacity="1" fill="none" fill-rule="nonzero" transform="matrix(1.00366 0 0 1 -2167.55 -774.986)"/><path d="M2990.67 1958.68 2991.35 1985.52 3028.52 1985.52 3028.52 1943.2 2981.37 1897.78 2934.24 1943.2 2934.24 1985.52 2970.37 1985.52 2971.06 1958.68C2971.06 1958.68 2971.74 1951.11 2980.69 1951.11 2989.64 1951.11 2990.67 1958.68 2990.67 1958.68Z" stroke="#231815" stroke-width="3.44111" stroke-linecap="round" stroke-linejoin="round" stroke-miterlimit="10" stroke-opacity="1" fill="#231815" fill-rule="nonzero" fill-opacity="1" transform="matrix(1.00366 0 0 1 -2167.55 -774.986)"/><path d="M4251.15 1472.8C4251.15 1476.22 4248.38 1478.99 4244.96 1478.99 4241.54 1478.99 4238.75 1476.22 4238.75 1472.8 4238.75 1469.38 4241.54 1466.61 4244.96 1466.61 4248.38 1466.61 4251.15 1469.38 4251.15 1472.8Z" stroke="#898989" stroke-width="3.44111" stroke-linecap="round" stroke-linejoin="round" stroke-miterlimit="10" stroke-opacity="1" fill="#898989" fill-rule="nonzero" fill-opacity="1" transform="matrix(1.00366 0 0 1 -2167.55 -774.986)"/><path d="M4275.23 1472.8C4275.23 1476.22 4272.46 1478.99 4269.04 1478.99 4265.62 1478.99 4262.84 1476.22 4262.84 1472.8 4262.84 1469.38 4265.62 1466.61 4269.04 1466.61 4272.46 1466.61 4275.23 1469.38 4275.23 1472.8Z" stroke="#898989" stroke-width="3.44111" stroke-linecap="round" stroke-linejoin="round" stroke-miterlimit="10" stroke-opacity="1" fill="#898989" fill-rule="nonzero" fill-opacity="1" transform="matrix(1.00366 0 0 1 -2167.55 -774.986)"/><path d="M4299.32 1472.8C4299.32 1476.22 4296.55 1478.99 4293.13 1478.99 4289.71 1478.99 4286.94 1476.22 4286.94 1472.8 4286.94 1469.38 4289.71 1466.61 4293.13 1466.61 4296.55 1466.61 4299.32 1469.38 4299.32 1472.8Z" stroke="#898989" stroke-width="3.44111" stroke-linecap="round" stroke-linejoin="round" stroke-miterlimit="10" stroke-opacity="1" fill="#898989" fill-rule="nonzero" fill-opacity="1" transform="matrix(1.00366 0 0 1 -2167.55 -774.986)"/><path d="M4307.59 1220.56 4317.9 1262.55 4317.9 1292.48C4317.9 1296.26 4314.8 1299.36 4311.03 1299.36L4222.58 1299.36C4218.79 1299.36 4215.7 1296.26 4215.7 1292.48L4215.7 1261.51 4227.75 1220.21C4228.09 1214.71 4234.63 1213.33 4234.63 1213.33L4300.7 1213.33C4300.7 1213.68 4305.51 1215.4 4307.59 1220.56Z" stroke="#231815" stroke-width="3.44111" stroke-linecap="round" stroke-linejoin="round" stroke-miterlimit="10" stroke-opacity="1" fill="none" fill-rule="nonzero" transform="matrix(1.00366 0 0 1 -2167.55 -774.986)"/><path d="M4317.9 1262.88 4286.59 1262.88C4286.59 1262.88 4282.8 1262.55 4282.46 1266.32 4282.11 1270.11 4277.65 1283.19 4268.35 1283.19 4259.06 1283.19 4254.59 1275.62 4253.9 1269.42 4253.21 1263.23 4250.11 1262.55 4248.4 1262.55 4246.67 1262.55 4217.77 1262.55 4217.77 1262.55L4217.77 1293.17C4217.77 1293.17 4218.79 1300.05 4222.93 1300.05 4227.06 1300.05 4308.61 1300.05 4308.61 1300.05 4308.61 1300.05 4318.59 1298.33 4318.59 1293.17 4318.59 1288.01 4317.9 1262.88 4317.9 1262.88Z" fill="#231815" fill-rule="nonzero" fill-opacity="1" transform="matrix(1.00366 0 0 1 -2167.55 -774.986)"/><path d="M4344.05 1208.86C4344.05 1227.87 4328.65 1243.27 4309.65 1243.27 4290.64 1243.27 4275.23 1227.87 4275.23 1208.86 4275.23 1189.86 4290.64 1174.45 4309.65 1174.45 4328.65 1174.45 4344.05 1189.86 4344.05 1208.86Z" fill="#EF4851" fill-rule="nonzero" fill-opacity="1" transform="matrix(1.00366 0 0 1 -2167.55 -774.986)"/><text fill="#FFFFFF" fill-opacity="1" font-family="Arial,Arial_MSFontService,sans-serif" font-style="normal" font-variant="normal" font-weight="400" font-stretch="normal" font-size="12" text-anchor="start" direction="ltr" writing-mode="lr-tb" unicode-bidi="normal" text-decoration="none" transform="matrix(3.45371 0 0 3.44111 2147.6 450)">2</text><path d="M4067.4 1789.04 3925.62 1789.04C3906.34 1789.04 3890.52 1773.2 3890.52 1753.93L3890.52 1660.34C3890.52 1641.07 3906.34 1625.23 3925.62 1625.23L4067.4 1625.23C4086.66 1625.23 4102.49 1641.07 4102.49 1660.34L4102.49 1753.93C4102.49 1773.2 4086.66 1789.04 4067.4 1789.04Z" fill="#ED4956" fill-rule="nonzero" fill-opacity="1" transform="matrix(1.00366 0 0 1 -2167.55 -774.986)"/><path d="M3987.9 1824.82C3987.9 1824.82 3974.14 1804.17 3963.12 1793.16 3952.12 1782.15 3939.72 1782.15 3939.72 1782.15L4060.17 1782.15 4046.4 1785.6C4046.4 1785.6 4042.96 1788.35 4038.83 1793.16 4034.7 1797.98 4010.62 1824.13 4010.62 1824.13 4010.62 1824.13 4006.48 1831.71 3999.6 1831.71 3992.72 1831.71 3987.9 1824.82 3987.9 1824.82Z" fill="#ED4956" fill-rule="nonzero" fill-opacity="1" transform="matrix(1.00366 0 0 1 -2167.55 -774.986)"/><path d="M4004.42 1742.93 4004.42 1735.35C4004.42 1728.12 3998.56 1722.62 3991.69 1722.62L3952.45 1722.62C3945.24 1722.62 3939.72 1728.47 3939.72 1735.35L3939.72 1742.93 4004.42 1742.93Z" fill="#FFFFFF" fill-rule="nonzero" fill-opacity="1" transform="matrix(1.00366 0 0 1 -2167.55 -774.986)"/><path d="M3988.59 1694.4C3988.59 1703.71 3981.04 1711.26 3971.73 1711.26 3962.41 1711.26 3954.87 1703.71 3954.87 1694.4 3954.87 1685.09 3962.41 1677.54 3971.73 1677.54 3981.04 1677.54 3988.59 1685.09 3988.59 1694.4Z" fill="#FFFFFF" fill-rule="nonzero" fill-opacity="1" transform="matrix(1.00366 0 0 1 -2167.55 -774.986)"/><text fill="#FFFFFF" fill-opacity="1" font-family="Arial,Arial_MSFontService,sans-serif" font-style="normal" font-variant="normal" font-weight="400" font-stretch="normal" font-size="16" text-anchor="start" direction="ltr" writing-mode="lr-tb" unicode-bidi="normal" text-decoration="none" transform="matrix(3.45371 0 0 3.44111 1873.67 956)">1</text><path d="M4010.96 2014.77C4010.96 2021.42 4005.56 2026.81 3998.91 2026.81 3992.26 2026.81 3986.87 2021.42 3986.87 2014.77 3986.87 2008.12 3992.26 2002.73 3998.91 2002.73 4005.56 2002.73 4010.96 2008.12 4010.96 2014.77Z" fill="#ED4956" fill-rule="nonzero" fill-opacity="1" transform="matrix(1.00366 0 0 1 -2167.55 -774.986)"/><path d="M1256 1065.71C1196.48 1065.71 1147.95 1017.19 1147.95 957.661 1147.95 898.13 1196.48 849.61 1256 849.61 1315.53 849.61 1364.06 898.13 1364.06 957.661 1364.06 1017.19 1315.53 1065.71 1256 1065.71ZM1256 863.375C1204.04 863.375 1161.72 905.7 1161.72 957.661 1161.72 1009.62 1204.04 1051.94 1256 1051.94 1307.97 1051.94 1350.29 1009.62 1350.29 957.661 1350.29 905.7 1307.97 863.375 1256 863.375Z" fill="url(#fill9)" fill-rule="nonzero" transform="matrix(1.00366 0 0 1 -2167.55 -774.986)"/><path d="M1256 1481.4C1231.92 1481.4 1212.31 1461.78 1212.31 1437.69 1212.31 1413.61 1231.92 1394 1256 1394 1280.09 1394 1299.7 1413.61 1299.7 1437.69 1299.7 1461.78 1280.09 1481.4 1256 1481.4ZM1256 1409.48C1240.52 1409.48 1227.79 1422.21 1227.79 1437.69 1227.79 1453.18 1240.52 1465.92 1256 1465.92 1271.49 1465.92 1284.22 1453.18 1284.22 1437.69 1284.22 1422.21 1271.49 1409.48 1256 1409.48Z" fill="#686868" fill-rule="nonzero" fill-opacity="1" transform="matrix(1.00366 0 0 1 -2167.55 -774.986)"/><path d="M1312.09 1392.27C1312.09 1397.97 1307.47 1402.6 1301.78 1402.6 1296.07 1402.6 1291.45 1397.97 1291.45 1392.27 1291.45 1386.57 1296.07 1381.95 1301.78 1381.95 1307.47 1381.95 1312.09 1386.57 1312.09 1392.27Z" fill="#686868" fill-rule="nonzero" fill-opacity="1" transform="matrix(1.00366 0 0 1 -2167.55 -774.986)"/><path d="M1256 1542.31C1196.48 1542.31 1147.95 1493.78 1147.95 1434.25 1147.95 1374.72 1196.48 1326.2 1256 1326.2 1315.53 1326.2 1364.06 1374.72 1364.06 1434.25 1364.06 1493.78 1315.53 1542.31 1256 1542.31ZM1256 1339.97C1204.04 1339.97 1161.72 1382.29 1161.72 1434.25 1161.72 1486.22 1204.04 1528.54 1256 1528.54 1307.97 1528.54 1350.29 1486.22 1350.29 1434.25 1350.29 1382.29 1307.97 1339.97 1256 1339.97Z" fill="#686868" fill-rule="nonzero" fill-opacity="1" transform="matrix(1.00366 0 0 1 -2167.55 -774.986)"/><path d="M1256 2052.63C1196.48 2052.63 1147.95 2004.1 1147.95 1944.57 1147.95 1885.04 1196.48 1836.52 1256 1836.52 1315.53 1836.52 1364.06 1885.04 1364.06 1944.57 1364.06 2004.1 1315.53 2052.63 1256 2052.63Z" fill="#686868" fill-rule="nonzero" fill-opacity="1" transform="matrix(1.00366 0 0 1 -2167.55 -774.986)"/><path d="M1256 1991.71C1231.92 1991.71 1212.31 1972.1 1212.31 1948.01 1212.31 1923.93 1231.92 1904.31 1256 1904.31 1280.09 1904.31 1299.7 1923.93 1299.7 1948.01 1299.7 1972.1 1280.09 1991.71 1256 1991.71ZM1256 1919.8C1240.52 1919.8 1227.79 1932.53 1227.79 1948.01 1227.79 1963.5 1240.52 1976.23 1256 1976.23 1271.49 1976.23 1284.22 1963.5 1284.22 1948.01 1284.22 1932.53 1271.49 1919.8 1256 1919.8Z" fill="#FFFFFF" fill-rule="nonzero" fill-opacity="1" transform="matrix(1.00366 0 0 1 -2167.55 -774.986)"/><path d="M1256 1991.71C1231.92 1991.71 1212.31 1972.1 1212.31 1948.01 1212.31 1923.93 1231.92 1904.31 1256 1904.31 1280.09 1904.31 1299.7 1923.93 1299.7 1948.01 1299.7 1972.1 1280.09 1991.71 1256 1991.71ZM1256 1919.8C1240.52 1919.8 1227.79 1932.53 1227.79 1948.01 1227.79 1963.5 1240.52 1976.23 1256 1976.23 1271.49 1976.23 1284.22 1963.5 1284.22 1948.01 1284.22 1932.53 1271.49 1919.8 1256 1919.8Z" fill="#FFFFFF" fill-rule="nonzero" fill-opacity="1" transform="matrix(1.00366 0 0 1 -2167.55 -774.986)"/><path d="M1312.09 1902.59C1312.09 1908.29 1307.47 1912.91 1301.78 1912.91 1296.07 1912.91 1291.45 1908.29 1291.45 1902.59 1291.45 1896.89 1296.07 1892.26 1301.78 1892.26 1307.47 1892.26 1312.09 1896.89 1312.09 1902.59Z" fill="#FFFFFF" fill-rule="nonzero" fill-opacity="1" transform="matrix(1.00366 0 0 1 -2167.55 -774.986)"/><path d="M1312.09 1902.59C1312.09 1908.29 1307.47 1912.91 1301.78 1912.91 1296.07 1912.91 1291.45 1908.29 1291.45 1902.59 1291.45 1896.89 1296.07 1892.26 1301.78 1892.26 1307.47 1892.26 1312.09 1896.89 1312.09 1902.59Z" fill="#FFFFFF" fill-rule="nonzero" fill-opacity="1" transform="matrix(1.00366 0 0 1 -2167.55 -774.986)"/></g></g></g></svg>